<svg width="0" height="0" class="hidden">
  <symbol version="1.0" xmlns="http://www.w3.org/2000/svg" preserveAspectRatio="xMidYMid meet" viewBox="0 0 310.000000 299.000000" id="6-2-best-seller-png-clipart">
    <g transform="translate(0.000000,299.000000) scale(0.100000,-0.100000)" fill="#000000" stroke="none">
      <path d="M1561 2941 c-13 -16 -34 -34 -46 -41 -21 -11 -28 -9 -70 26 l-47 38
-45 -51 c-48 -57 -51 -57 -115 -15 -20 13 -42 21 -48 17 -6 -3 -22 -29 -35
-56 -14 -27 -29 -49 -34 -49 -5 0 -30 9 -56 20 -64 27 -70 26 -84 -19 -6 -21
-19 -48 -29 -59 -16 -19 -20 -20 -71 -6 -30 8 -57 12 -60 8 -3 -3 -13 -31 -21
-62 l-16 -57 -66 3 -66 3 -7 -61 c-8 -70 -21 -80 -100 -80 l-43 0 1 -67 2 -68
-58 -11 c-32 -7 -61 -15 -64 -18 -4 -3 -1 -31 6 -61 7 -30 10 -59 6 -65 -3 -5
-28 -16 -56 -24 -70 -21 -70 -22 -49 -69 32 -68 27 -83 -32 -113 -29 -15 -54
-28 -56 -29 -2 -2 8 -26 22 -54 14 -28 26 -57 26 -65 0 -7 -23 -28 -50 -46
l-51 -33 17 -26 c9 -14 25 -35 35 -47 29 -31 23 -49 -28 -92 l-46 -40 44 -47
45 -46 46 11 46 12 6 76 c16 200 51 341 120 488 174 366 517 630 910 699 114
19 316 19 431 -1 235 -40 461 -154 633 -319 65 -61 141 -158 238 -301 10 -15
15 -15 66 0 54 15 56 17 68 63 6 27 13 53 15 60 5 16 -14 30 -55 38 -76 15
-73 11 -65 80 4 38 2 65 -3 69 -6 3 -38 9 -71 12 l-61 7 0 53 c0 82 -2 84 -75
78 l-63 -6 -14 64 -14 63 -44 -4 c-98 -8 -92 -11 -113 52 -11 31 -26 57 -33
57 -7 0 -37 -9 -65 -20 -28 -12 -53 -19 -54 -18 -1 2 -14 27 -29 56 -30 60
-43 63 -101 27 -22 -13 -43 -25 -48 -25 -4 0 -23 23 -43 50 -20 28 -40 50 -45
50 -5 0 -31 -16 -59 -36 l-50 -36 -43 46 c-24 25 -47 46 -52 46 -6 -1 -21 -14
-34 -29z"></path>
      <path d="M1578 2663 c7 -3 16 -2 19 1 4 3 -2 6 -13 5 -11 0 -14 -3 -6 -6z"></path>
      <path d="M1607 2583 c-3 -5 -9 -57 -13 -116 -6 -94 -5 -107 9 -107 10 0 17 11
19 33 3 28 7 33 38 37 26 4 36 11 41 30 11 41 10 85 -3 102 -14 18 -84 33 -91
21z m62 -32 c11 -7 12 -19 5 -53 -12 -56 -38 -59 -42 -4 -5 60 6 77 37 57z"></path>
      <path d="M1379 2565 c-28 -6 -44 -15 -42 -22 2 -7 10 -10 17 -7 17 7 21 -5 36
-100 8 -48 18 -80 27 -83 8 -3 16 -4 18 -2 2 3 -3 38 -11 79 -18 95 -18 118 1
122 8 2 11 8 7 13 -5 8 -21 8 -53 0z"></path>
      <path d="M1747 2463 c-32 -117 -31 -109 -12 -117 10 -4 17 6 25 35 8 30 16 39
28 37 13 -3 16 -13 14 -45 -1 -28 2 -43 12 -46 16 -7 31 52 21 83 -4 11 -2 20
4 20 6 0 16 18 22 40 11 37 10 43 -7 60 -10 11 -33 22 -50 26 l-31 6 -26 -99z
m82 53 c8 -9 8 -21 2 -39 -12 -31 -23 -38 -40 -28 -11 7 -11 16 -1 45 12 39
21 44 39 22z"></path>
      <path d="M1222 2524 c-47 -33 -17 -114 43 -114 29 0 36 -4 41 -26 9 -34 -12
-56 -30 -32 -15 20 -39 8 -30 -15 8 -22 36 -30 66 -18 33 12 40 42 19 83 -12
24 -24 34 -46 36 -37 5 -55 19 -55 43 0 27 19 33 40 14 19 -17 20 -17 26 0 5
12 1 23 -11 31 -24 18 -36 18 -63 -2z"></path>
      <path d="M1902 2409 c-34 -82 -38 -101 -26 -106 19 -7 14 -14 58 95 34 86 38
112 17 112 -5 0 -27 -45 -49 -101z"></path>
      <path d="M1085 2467 c-21 -12 -37 -25 -37 -30 1 -4 22 -48 47 -97 l45 -90 43
21 c23 12 43 22 44 23 1 1 -2 8 -6 15 -7 11 -13 11 -32 -3 -31 -21 -34 -21
-47 9 -17 36 -15 40 13 53 14 6 25 16 25 22 0 14 -33 13 -49 -2 -10 -11 -15
-9 -27 6 -20 29 -17 45 11 58 14 6 25 15 25 19 0 18 -18 16 -55 -4z"></path>
      <path d="M2023 2442 c-10 -10 -34 -48 -53 -85 l-35 -68 28 -24 c15 -14 33 -25
38 -25 13 0 59 46 59 60 0 17 -24 11 -43 -10 -19 -23 -37 -19 -37 8 1 9 16 42
34 72 35 59 62 73 59 30 -3 -41 5 -54 22 -40 23 19 19 66 -7 84 -29 21 -44 20
-65 -2z"></path>
      <path d="M928 2367 l-27 -22 65 -88 65 -87 34 26 c44 33 45 64 5 97 -16 14
-30 32 -30 39 0 23 -39 58 -63 58 -12 0 -34 -10 -49 -23z m70 -19 c15 -15 15
-45 0 -54 -13 -8 -48 30 -48 52 0 17 32 18 48 2z m58 -84 c15 -22 15 -27 2
-40 -14 -14 -18 -13 -37 12 -16 20 -18 30 -10 40 16 20 26 17 45 -12z"></path>
      <path d="M2108 2297 l-67 -82 37 -32 c26 -22 41 -28 49 -21 9 7 5 16 -15 33
l-27 23 24 26 25 26 22 -21 c33 -31 52 -13 20 20 -25 26 -25 26 -6 51 l19 25
23 -23 c28 -25 38 -28 38 -8 0 11 -60 66 -72 66 -2 0 -33 -37 -70 -83z"></path>
      <path d="M744 2185 c-16 -21 -23 -40 -18 -45 30 -29 151 -120 159 -119 19 1
57 59 50 77 -6 15 -9 13 -27 -10 -23 -33 -26 -33 -57 -7 l-24 20 23 24 c18 19
21 28 13 36 -9 9 -18 4 -37 -17 l-25 -29 -22 22 -23 23 22 23 c20 21 21 37 1
37 -4 0 -20 -16 -35 -35z"></path>
      <path d="M2778 2133 c7 -3 16 -2 19 1 4 3 -2 6 -13 5 -11 0 -14 -3 -6 -6z"></path>
      <path d="M670 2075 c0 -9 16 -23 35 -32 34 -16 45 -36 26 -48 -5 -3 -26 4 -46
16 -27 16 -39 19 -47 11 -7 -7 -10 -13 -7 -16 19 -17 184 -104 191 -100 16 10
7 23 -31 46 -30 18 -38 27 -31 38 8 13 16 12 49 -7 47 -27 47 -27 54 -9 4 10
-22 30 -85 65 -100 56 -108 58 -108 36z"></path>
      <path d="M2680 2020 c-65 -8 -114 -23 -136 -41 -9 -7 -4 -42 22 -142 51 -196
52 -199 77 -191 38 11 42 21 29 69 -16 60 -15 72 5 79 12 5 33 -9 72 -48 48
-46 60 -54 84 -49 15 3 29 9 32 12 2 4 -20 31 -49 60 l-54 53 20 34 c24 41 18
100 -15 135 -12 13 -21 27 -19 31 1 5 1 7 0 7 -2 -1 -32 -5 -68 -9z m32 -77
c31 -28 23 -62 -18 -79 -47 -20 -60 -14 -68 30 -10 50 -10 50 16 58 38 10 51
9 70 -9z"></path>
      <path d="M2641 1900 c0 -8 4 -22 9 -30 12 -18 12 -2 0 25 -6 13 -9 15 -9 5z"></path>
      <path d="M588 1915 c-16 -43 -9 -72 10 -39 8 15 18 13 96 -16 64 -24 90 -30
98 -22 12 12 -12 24 -125 67 -38 14 -46 21 -42 36 4 12 1 19 -7 19 -8 0 -21
-20 -30 -45z"></path>
      <path d="M2388 1948 c-50 -13 -88 -50 -88 -86 0 -55 57 -235 80 -254 27 -22
70 -22 135 1 41 15 51 22 53 44 4 32 -9 34 -80 12 -42 -12 -49 -12 -63 1 -8 9
-15 21 -15 29 0 7 -3 20 -6 29 -4 11 5 18 38 26 77 19 90 28 82 53 -3 12 -7
23 -8 24 -1 1 -30 -5 -64 -14 -35 -9 -65 -13 -68 -10 -3 3 -7 20 -7 39 -2 31
0 34 56 53 33 11 58 23 58 28 -1 4 -1 14 -1 22 0 17 -43 19 -102 3z"></path>
      <path d="M2083 1862 c-13 -2 -23 -11 -23 -19 0 -26 61 -245 76 -274 22 -44 59
-49 143 -22 42 13 51 20 51 39 0 32 -10 35 -69 17 -29 -8 -57 -11 -61 -7 -5 5
-23 63 -41 129 -18 66 -37 125 -43 131 -6 5 -21 8 -33 6z"></path>
      <path d="M1835 1788 c-3 -7 10 -71 29 -142 42 -157 59 -180 126 -173 25 2 62
11 82 20 30 13 36 19 31 37 -5 20 -10 21 -47 15 -95 -18 -87 -25 -126 123 -34
130 -35 132 -63 132 -15 0 -30 -6 -32 -12z"></path>
      <path d="M1682 1755 c-90 -28 -98 -55 -58 -203 43 -160 58 -170 199 -125 42
13 47 18 41 36 -9 32 -8 31 -71 14 -67 -20 -84 -11 -86 44 -2 32 0 33 56 48
49 13 57 18 55 36 -3 21 -13 22 -102 14 -35 -4 -40 -1 -47 23 -10 37 6 54 69
68 46 11 53 15 50 34 -4 26 -45 31 -106 11z"></path>
      <path d="M1419 1685 c-57 -18 -83 -46 -83 -90 0 -48 33 -78 107 -100 75 -22
87 -31 87 -60 0 -25 -29 -41 -91 -51 -29 -5 -39 -11 -35 -21 4 -8 6 -19 6 -24
0 -14 62 -11 113 7 56 19 77 45 77 97 0 51 -32 81 -106 102 -85 24 -84 23 -90
40 -10 25 13 42 77 55 45 10 59 17 55 27 -4 8 -6 19 -6 24 0 13 -58 10 -111
-6z"></path>
      <path d="M1155 1611 c-92 -25 -100 -29 -100 -51 0 -27 14 -30 66 -17 26 7 26
6 62 -129 20 -75 38 -138 40 -141 10 -9 57 10 57 23 0 11 -34 144 -66 255 -3
12 6 19 39 28 40 10 44 13 39 36 -5 31 -11 31 -137 -4z"></path>
      <path d="M2848 1588 l-38 -10 0 -66 c0 -223 -78 -467 -214 -672 -175 -263
-437 -441 -761 -516 -99 -24 -389 -26 -505 -5 -320 58 -619 252 -796 517 -34
51 -63 97 -65 103 -3 9 -17 9 -55 0 l-50 -12 -13 -69 c-7 -38 -11 -71 -9 -72
1 -1 29 -8 60 -15 31 -7 58 -17 60 -23 2 -6 1 -34 -3 -62 -4 -28 -3 -55 1 -60
5 -5 35 -11 67 -15 l58 -6 5 -65 5 -65 63 -1 c35 -1 66 -4 69 -7 3 -3 10 -32
17 -64 l11 -58 35 4 c19 3 51 5 70 5 33 1 35 -1 50 -51 9 -29 19 -55 23 -59 3
-4 34 3 68 15 33 13 62 21 63 19 1 -1 13 -27 26 -56 27 -60 40 -64 106 -27 25
14 46 25 48 25 2 0 18 -22 36 -50 18 -27 39 -50 47 -50 9 0 37 16 63 35 l48
35 37 -45 c21 -25 45 -45 54 -45 8 0 34 19 57 41 l42 42 30 -21 c16 -12 35
-28 42 -37 21 -26 45 -17 80 30 19 25 39 45 44 45 6 0 29 -12 51 -25 58 -36
71 -32 100 25 14 28 31 50 38 50 6 0 35 -9 64 -20 59 -22 60 -21 87 53 19 52
21 52 96 35 60 -14 65 -10 75 64 4 26 10 50 13 52 4 2 32 0 62 -4 32 -4 60 -4
67 2 7 5 13 35 15 66 l3 57 35 3 c19 1 50 5 68 8 33 5 33 6 32 52 -3 92 -5 89
52 96 74 10 78 15 62 83 -7 31 -11 60 -9 64 3 4 17 10 32 14 15 3 42 13 60 20
l32 14 -19 57 c-11 31 -20 60 -20 64 0 4 25 20 55 35 30 14 55 31 55 36 0 5
-12 33 -26 61 l-26 52 24 20 c14 12 37 30 53 41 26 19 27 23 15 45 -7 14 -16
27 -19 30 -4 3 -14 17 -23 31 -16 26 -16 27 28 70 24 24 44 47 44 51 0 17 -83
98 -99 97 -9 -1 -33 -6 -53 -11z"></path>
      <path d="M2468 1573 c7 -3 16 -2 19 1 4 3 -2 6 -13 5 -11 0 -14 -3 -6 -6z"></path>
      <path d="M899 1545 c-57 -18 -83 -46 -83 -90 0 -48 33 -78 107 -100 75 -22 87
-31 87 -60 0 -25 -27 -39 -93 -51 -28 -5 -37 -10 -33 -21 3 -8 6 -19 6 -25 0
-16 92 -2 138 21 44 22 52 36 52 87 0 49 -34 78 -119 104 -108 32 -108 67 -1
90 33 7 60 16 60 21 0 41 -38 49 -121 24z"></path>
      <path d="M680 1486 c-112 -31 -119 -49 -81 -197 42 -161 62 -177 183 -143 48
14 58 20 58 39 0 32 -6 34 -63 19 -29 -8 -57 -14 -64 -14 -14 0 -27 23 -37 62
-6 25 -4 27 48 39 70 15 80 22 71 48 -8 25 -16 26 -81 6 -54 -16 -61 -13 -70
32 -7 36 2 42 84 63 46 12 47 13 32 41 -12 22 -18 22 -80 5z"></path>
      <path d="M337 1394 c-26 -8 -50 -21 -53 -28 -7 -17 65 -297 80 -313 9 -10 25
-9 75 2 111 26 149 62 137 129 -7 35 -24 60 -47 68 -9 3 -9 10 1 27 16 31 -2
94 -33 116 -27 19 -96 18 -160 -1z m121 -46 c32 -32 3 -77 -59 -92 -23 -5 -28
-2 -33 22 -4 15 -9 35 -12 44 -8 27 81 49 104 26z m40 -140 c7 -7 12 -25 12
-41 0 -23 -7 -31 -35 -43 -52 -21 -63 -18 -74 24 -15 50 -14 51 12 62 32 13
71 12 85 -2z"></path>
      <path d="M2377 1363 c-14 -13 -6 -23 33 -43 22 -11 40 -23 40 -27 0 -3 -20 -3
-44 0 -34 5 -45 3 -50 -9 -3 -9 -6 -17 -6 -18 0 -1 37 -3 83 -5 45 -2 95 -4
111 -5 16 0 31 5 33 12 3 7 -3 12 -14 12 -19 0 -44 12 -129 61 -28 16 -54 26
-57 22z"></path>
      <path d="M2327 1214 c-19 -39 -22 -64 -7 -64 6 0 10 5 10 10 0 16 17 12 103
-25 61 -26 83 -32 88 -23 11 17 7 19 -83 58 -56 23 -78 38 -78 51 0 32 -16 29
-33 -7z"></path>
      <path d="M2275 1110 c-6 -10 0 -14 109 -78 65 -38 86 -44 86 -22 0 10 -162
110 -178 110 -6 0 -13 -4 -17 -10z"></path>
      <path d="M2207 1013 c-14 -13 -5 -23 78 -87 l84 -65 30 41 c23 31 28 44 19 50
-8 4 -21 -3 -34 -19 l-21 -27 -64 49 c-35 27 -69 52 -75 57 -6 4 -14 5 -17 1z"></path>
      <path d="M930 965 c0 -8 5 -15 12 -15 7 0 -10 -24 -38 -52 -74 -79 -87 -96
-79 -108 5 -8 31 11 75 55 54 54 72 66 89 60 30 -9 26 6 -12 43 -37 36 -47 39
-47 17z"></path>
      <path d="M2143 939 c-9 -9 3 -32 44 -93 73 -104 72 -104 83 -86 6 10 4 20 -5
30 -8 9 -11 21 -6 29 7 11 13 10 33 -3 23 -15 38 -13 38 5 0 6 -163 129 -172
129 -2 0 -9 -5 -15 -11z m92 -80 c11 -17 -1 -21 -15 -4 -8 9 -8 15 -2 15 6 0
14 -5 17 -11z"></path>
      <path d="M640 880 c12 -16 24 -30 26 -30 3 0 -4 14 -16 30 -12 17 -24 30 -26
30 -3 0 4 -13 16 -30z"></path>
      <path d="M967 813 c-50 -68 -62 -91 -54 -102 12 -14 20 -7 57 47 11 16 19 19
29 13 12 -8 10 -17 -14 -51 -23 -34 -26 -43 -15 -50 19 -12 145 159 129 174
-7 8 -19 1 -38 -21 -48 -57 -71 -36 -26 23 20 26 22 34 11 43 -11 9 -27 -6
-79 -76z"></path>
      <path d="M2070 879 c0 -6 23 -43 51 -84 49 -69 55 -95 24 -95 -8 0 -37 33 -66
74 -33 48 -57 72 -65 69 -8 -3 -14 -7 -14 -9 0 -7 104 -149 115 -156 30 -22
85 7 85 45 0 22 -102 166 -117 167 -7 0 -13 -5 -13 -11z"></path>
      <path d="M680 826 c0 -2 8 -10 18 -17 15 -13 16 -12 3 4 -13 16 -21 21 -21 13z"></path>
      <path d="M1117 797 c-8 -12 -31 -55 -51 -94 l-36 -73 41 -21 c49 -25 78 -12
35 16 -29 19 -32 33 -13 59 11 16 17 17 36 6 12 -6 30 -9 39 -5 13 5 11 10
-15 26 -29 18 -31 23 -21 45 13 27 20 29 50 13 13 -7 23 -8 30 -1 7 7 -3 17
-30 31 -50 26 -47 26 -65 -2z"></path>
      <path d="M1483 793 c9 -2 23 -2 30 0 6 3 -1 5 -18 5 -16 0 -22 -2 -12 -5z"></path>
      <path d="M1910 780 c-26 -26 -26 -29 14 -108 48 -95 56 -100 111 -73 47 23 54
35 31 48 -7 4 -28 37 -46 73 -18 36 -38 68 -44 72 -20 13 -45 9 -66 -12z m76
-61 c18 -36 22 -55 15 -62 -7 -7 -7 -14 0 -24 9 -10 8 -13 -3 -13 -16 0 -77
119 -71 138 10 26 34 10 59 -39z"></path>
      <path d="M1291 641 c-13 -55 -20 -104 -17 -109 7 -12 62 -23 80 -16 19 7 40
59 32 80 -3 8 1 25 9 37 32 46 12 92 -46 102 l-35 7 -23 -101z m73 63 c18 -7
20 -27 6 -54 -21 -39 -51 0 -34 44 7 18 7 18 28 10z m-8 -108 c7 -19 -13 -56
-31 -56 -19 0 -24 11 -18 43 6 29 39 38 49 13z"></path>
      <path d="M1718 723 c-16 -3 -28 -11 -28 -19 0 -9 7 -14 17 -12 15 2 21 -13 37
-89 13 -62 24 -93 33 -93 17 0 17 22 -2 112 -14 65 -14 74 0 84 31 23 14 28
-57 17z"></path>
      <path d="M1439 693 c0 -10 -4 -56 -8 -103 -10 -95 -7 -100 52 -100 26 0 37 4
37 15 0 10 -10 15 -30 15 -28 0 -30 3 -30 35 0 33 2 35 36 35 42 0 43 23 1 28
-22 3 -27 8 -27 33 0 27 3 29 35 29 24 0 35 5 35 15 0 11 -12 15 -50 15 -41 0
-50 -3 -51 -17z"></path>
      <path d="M1576 694 c-35 -34 -5 -114 43 -114 20 0 34 -32 24 -56 -7 -19 -29
-18 -37 1 -7 19 -36 20 -36 2 0 -18 32 -47 51 -47 8 0 25 7 37 16 42 29 19
114 -32 114 -17 0 -40 45 -30 61 8 14 34 11 40 -6 8 -21 34 -19 34 3 0 41 -63
58 -94 26z"></path>
    </g>
  </symbol>
</svg>