<svg width="0" height="0" class="hidden">
  <symbol version="1.0" xmlns="http://www.w3.org/2000/svg" preserveAspectRatio="xMidYMid meet" viewBox="0 0 860.000000 657.000000" id="ecommerce">
    <g transform="translate(0.000000,657.000000) scale(0.100000,-0.100000)" fill="#000000" stroke="none">
      <path d="M4045 6144 c-147 -17 -224 -28 -310 -45 -419 -84 -820 -264 -1173
-528 -153 -114 -423 -380 -533 -526 -519 -682 -711 -1512 -544 -2341 210
-1042 1004 -1894 2034 -2184 263 -73 494 -104 786 -103 439 1 816 85 1218 272
750 347 1336 1051 1548 1861 118 451 125 944 19 1386 -204 850 -751 1539
-1525 1919 -324 159 -639 250 -984 285 -94 9 -464 12 -536 4z m-765 -1356 l85
-268 1354 0 1354 0 -6 -67 c-4 -38 -21 -295 -38 -573 -17 -278 -32 -506 -33
-507 -1 -1 -541 -92 -1201 -202 -660 -111 -1211 -207 -1225 -215 -38 -21 -88
-100 -96 -152 -9 -60 10 -124 53 -174 l35 -40 1199 0 1199 0 0 -160 0 -160
-1303 0 -1304 0 -46 31 c-99 65 -184 184 -218 304 -22 77 -17 217 10 295 28
81 99 189 151 230 22 18 40 39 40 48 0 10 -96 359 -213 777 l-213 760 -103 5
-103 5 -64 155 c-35 85 -64 161 -64 168 0 10 70 12 332 10 l333 -3 85 -267z
m657 -2661 c66 -34 115 -83 150 -150 24 -45 28 -64 28 -137 0 -71 -4 -94 -26
-140 -33 -70 -89 -126 -159 -159 -75 -35 -190 -37 -266 -3 -64 29 -136 102
-166 167 -32 70 -32 190 -1 258 40 87 91 136 182 174 77 33 182 28 258 -10z
m1710 12 c78 -29 163 -114 189 -190 54 -159 -16 -333 -164 -406 -48 -24 -70
-28 -137 -28 -66 0 -90 5 -137 27 -118 55 -188 164 -188 293 0 230 221 383
437 304z"></path>
    </g>
  </symbol>
</svg>