<svg width="0" height="0" class="hidden">
  <symbol version="1.0" xmlns="http://www.w3.org/2000/svg" preserveAspectRatio="xMidYMid meet" viewBox="0 0 539.000000 617.000000" id="embrodery">
    <g transform="translate(0.000000,617.000000) scale(0.100000,-0.100000)" fill="#000000" stroke="none">
      <path d="M1044 5915 c-4 -8 -4 -22 0 -30 5 -13 43 -15 262 -15 140 0 254 -3
252 -8 -8 -19 -97 -171 -192 -327 l-103 -170 -99 -3 c-54 -1 -104 -8 -111 -14
-10 -8 -13 -55 -13 -195 0 -179 1 -183 19 -173 27 14 31 13 33 -7 1 -10 5 59
8 152 l5 170 170 0 170 0 0 -255 0 -255 -164 -2 c-90 -1 -166 -4 -169 -7 -3
-4 5 -17 18 -31 l23 -25 490 0 c484 0 489 0 476 -20 -8 -10 -40 -57 -72 -104
l-58 -85 -496 -1 c-447 0 -499 -2 -515 -17 -17 -15 -19 -15 -31 0 -6 9 -28 17
-47 19 l-35 3 -3 103 -3 102 34 0 c25 0 33 4 33 18 0 14 -8 18 -33 18 -18 0
-28 -3 -23 -6 6 -4 -1 -16 -14 -28 -17 -14 -26 -17 -30 -9 -2 7 -5 2 -5 -10
-1 -13 -6 -23 -11 -23 -7 0 -10 -38 -8 -107 l3 -108 28 -9 c20 -7 34 -7 47 2
12 7 20 8 20 2 0 -7 177 -10 520 -10 286 0 520 -4 520 -9 0 -4 -8 -19 -18 -32
-10 -13 -76 -109 -147 -213 l-127 -190 -6 -83 c-5 -81 -4 -83 27 -118 17 -20
31 -32 32 -28 0 4 1 53 2 108 l2 100 68 98 c37 54 65 103 61 109 -4 6 -3 8 3
5 8 -5 40 37 158 213 76 112 177 259 221 322 l50 73 245 3 c134 1 253 0 265
-2 13 -4 54 -55 106 -133 48 -71 113 -166 145 -213 32 -47 117 -170 188 -275
l130 -190 3 -937 2 -938 -145 0 -145 0 0 515 0 515 -20 -20 c-11 -11 -24 -20
-30 -20 -6 0 -10 -112 -10 -317 l0 -317 28 -30 27 -31 -27 24 -28 24 0 -171 0
-172 -135 0 -135 0 0 308 0 309 -25 23 -26 24 26 23 25 24 0 693 c0 602 -2
695 -15 706 -8 7 -22 10 -30 6 -13 -5 -15 -126 -15 -1051 0 -576 -2 -1050 -5
-1056 -4 -5 -67 -9 -141 -9 l-134 0 0 182 0 182 -30 -29 -30 -29 0 -153 0
-153 -134 0 c-85 0 -137 4 -141 11 -5 7 -17 2 -34 -13 -17 -15 -15 -11 6 13
l33 35 0 619 c0 571 -1 620 -17 637 -14 15 -14 19 -3 16 13 -2 15 24 18 167 3
200 1 215 -33 215 -19 0 -25 -6 -26 -22 -1 -13 -2 -394 -3 -848 l-1 -825 -142
-3 c-111 -2 -143 0 -143 10 0 7 0 374 0 815 l0 801 -35 39 -35 38 0 -852 0
-853 -494 0 c-441 0 -495 -2 -500 -16 -3 -9 -6 -132 -6 -273 l0 -258 -78 -6
c-113 -9 -185 -39 -250 -103 -29 -30 -65 -79 -80 -111 l-27 -58 0 -395 0 -395
194 -3 c139 -2 198 1 205 9 8 9 8 10 -1 5 -7 -4 -22 4 -35 19 -21 25 -24 25
-165 25 l-144 0 3 363 c3 354 4 363 26 408 39 80 106 139 177 158 26 7 197 11
468 11 412 1 429 0 475 -20 60 -27 128 -92 155 -150 21 -43 22 -62 25 -407 l3
-363 -275 0 -275 0 -19 -25 c-11 -13 -22 -21 -26 -18 -3 3 -6 1 -6 -5 0 -9 81
-12 314 -12 173 0 321 3 330 6 14 5 16 27 16 140 l0 134 880 0 879 0 3 -138 3
-137 254 -3 c163 -1 258 1 265 8 5 5 15 10 20 10 6 0 4 -5 -4 -10 -11 -7 2
-10 43 -10 31 0 57 4 57 10 0 14 31 13 63 -2 25 -12 27 -18 27 -71 l0 -59 29
24 c23 18 30 31 30 61 l1 37 318 0 c234 0 321 3 330 12 9 9 12 95 12 326 l0
313 -22 -3 c-14 -2 -26 -14 -32 -30 -8 -24 -6 -32 17 -56 15 -15 27 -33 27
-40 0 -14 -35 -34 -44 -25 -3 3 -6 -93 -6 -215 l0 -222 -287 -1 c-159 0 -339
0 -401 1 -80 1 -118 -3 -130 -12 -12 -10 -14 -10 -8 0 6 9 -47 12 -248 12
l-256 0 0 358 0 357 26 54 c32 71 100 135 167 158 47 16 92 18 477 18 l425 0
55 -26 c63 -31 97 -61 131 -115 28 -46 55 -74 63 -67 3 4 6 1 6 -5 0 -7 7 -12
15 -12 20 0 19 9 -4 62 -32 70 -77 125 -134 161 -72 46 -119 60 -204 61 l-73
1 0 262 c0 144 -3 268 -6 277 -5 14 -59 16 -505 16 l-499 0 0 545 0 545 210 0
209 0 3 -401 3 -401 38 -34 c29 -24 52 -34 90 -39 29 -3 284 -5 567 -3 l515 3
32 24 c67 50 64 -2 61 960 l-3 869 -25 27 c-42 46 -77 55 -218 55 -103 0 -132
-3 -142 -15 -7 -8 -21 -15 -31 -15 -12 0 -16 -5 -13 -14 5 -12 39 -15 171 -18
159 -3 165 -4 184 -27 18 -22 19 -52 19 -872 0 -612 -3 -855 -11 -873 -7 -14
-25 -30 -42 -36 -41 -14 -1028 -14 -1079 0 -21 6 -42 19 -48 30 -6 12 -10 316
-10 873 0 826 1 856 19 878 18 23 26 24 173 29 96 3 146 9 135 14 -10 5 -16
15 -13 23 3 8 2 11 -3 8 -5 -3 -12 -1 -16 5 -4 6 -56 10 -128 10 -137 0 -170
-12 -207 -72 -19 -31 -20 -51 -20 -335 l0 -303 -210 0 -210 0 0 215 c0 177 -3
221 -16 247 -8 16 -76 120 -150 229 l-135 199 495 0 c532 0 501 -3 518 45 2 7
-180 12 -527 15 l-529 5 -67 95 c-37 52 -68 98 -68 103 -1 4 266 7 593 7 594
0 595 0 610 21 8 12 19 19 24 16 5 -4 9 0 9 8 0 12 -16 15 -74 15 l-73 0 0
271 c0 167 -4 278 -10 290 -10 17 -22 19 -113 19 l-103 0 -50 88 c-28 48 -94
158 -148 245 -53 87 -96 163 -96 168 0 5 103 9 249 9 209 0 251 2 261 15 10
12 10 18 0 30 -11 13 -188 15 -1487 15 -1301 0 -1474 -2 -1479 -15z m1166 -20
l-23 -25 89 0 89 0 -3 -492 c-3 -365 -6 -495 -15 -500 -7 -4 -26 -8 -44 -8
-42 0 -79 -18 -98 -47 -9 -12 -20 -23 -25 -23 -6 0 -11 108 -12 278 l-3 277
-87 3 c-49 1 -88 6 -88 10 0 7 29 89 114 326 25 71 45 131 43 132 -2 2 -24
-18 -50 -44 -42 -43 -51 -61 -110 -232 l-64 -185 -102 -3 c-55 -1 -102 -4
-103 -5 -1 -1 -5 -130 -8 -287 l-5 -285 -97 -3 -98 -3 0 279 c0 217 -3 282
-13 290 -7 6 -47 12 -90 14 l-76 3 61 100 c33 55 84 138 113 185 28 47 69 115
91 152 l39 68 233 0 c127 0 232 -2 232 -5 0 -2 -7 -23 -16 -45 -9 -23 -15 -43
-12 -45 2 -2 37 29 78 70 40 41 76 75 78 75 3 0 -5 -11 -18 -25z m1091 -25
c124 0 126 0 137 -25 6 -13 72 -125 147 -249 74 -123 135 -227 135 -230 0 -3
-33 -6 -74 -6 -49 0 -77 -4 -85 -13 -7 -9 -12 -106 -13 -288 l-3 -274 -97 -3
-98 -3 0 279 c0 203 -3 281 -12 290 -8 8 -47 12 -108 12 l-95 0 -85 242 c-47
134 -86 248 -88 255 -3 10 21 13 99 13 l102 0 -24 28 -24 27 31 -27 c29 -27
33 -28 155 -28z m-691 -501 l0 -501 -87 4 -88 4 -3 497 -2 497 90 0 90 0 0
-501z m285 484 c4 -10 30 -81 57 -158 27 -77 62 -176 78 -220 16 -44 32 -88
35 -97 6 -16 -1 -18 -77 -18 -52 0 -89 -5 -96 -12 -9 -9 -12 -86 -12 -286 l0
-275 -21 27 c-28 36 -70 56 -118 56 -77 0 -71 -44 -71 506 l0 494 109 0 c94 0
110 -2 116 -17z m-785 -813 l0 -260 -170 0 -170 0 0 260 0 260 170 0 170 0 0
-260z m1175 0 l0 -255 -170 0 -170 0 -3 245 c-1 134 0 250 3 258 3 10 42 12
172 10 l168 -3 0 -255z m670 0 l0 -255 -172 -3 -173 -2 0 260 0 260 173 -2
172 -3 0 -255z m-535 -1525 c-11 -13 12 -15 199 -15 l212 0 -3 -112 -3 -113
-205 0 -205 0 -3 114 -3 114 -27 -24 c-17 -15 -14 -10 7 14 34 36 56 52 31 22z
m-35 -1423 c-3 -3 -11 0 -18 7 -9 10 -8 11 6 5 10 -3 15 -9 12 -12z m-1400
-12 c-3 -5 -12 -10 -18 -10 -7 0 -6 4 3 10 19 12 23 12 15 0z m1902 -20 l473
0 0 -244 c0 -135 -3 -246 -7 -248 -5 -2 -50 -2 -100 0 -79 3 -93 6 -93 20 0
29 -46 116 -81 157 -19 21 -61 51 -94 67 -57 27 -66 28 -204 28 l-145 0 29
-30 c28 -30 30 -30 132 -30 120 0 169 -15 226 -69 35 -33 54 -64 71 -118 7
-21 3 -21 -201 -25 -221 -5 -252 -11 -325 -60 -20 -14 -44 -33 -53 -42 -15
-15 -100 -16 -984 -16 l-968 0 -39 31 c-22 18 -64 43 -94 57 -53 26 -61 26
-262 27 -181 0 -208 2 -208 16 0 30 52 120 84 144 76 58 8 55 1379 55 l1261 0
-29 30 -29 30 -940 0 -940 0 -30 -27 -31 -28 24 28 24 27 -295 0 c-235 0 -304
-3 -337 -15 -55 -19 -103 -54 -95 -67 4 -6 3 -8 -3 -5 -24 15 -102 -107 -103
-160 0 -22 -3 -23 -100 -23 l-100 0 0 245 0 245 1351 0 c1077 0 1349 3 1343
13 -6 10 -4 10 7 0 10 -10 121 -13 486 -13z m-437 -679 c0 -5 -9 -28 -20 -53
-17 -38 -19 -71 -22 -263 l-3 -220 -877 -3 -878 -2 0 212 c-1 184 -3 220 -20
268 -11 30 -19 58 -20 63 0 4 414 7 920 7 517 0 920 -4 920 -9z m811 -858 c13
-16 12 -17 -3 -4 -10 7 -18 15 -18 17 0 8 8 3 21 -13z"></path>
      <path d="M1066 4925 c-26 -23 -28 -29 -22 -72 3 -25 8 -48 10 -51 2 -2 14 6
26 18 17 17 20 31 18 76 l-3 54 -29 -25z"></path>
      <path d="M804 4755 c-9 -36 -3 -37 24 -4 23 28 23 29 3 29 -14 0 -23 -9 -27
-25z"></path>
      <path d="M963 4769 c9 -5 17 -19 17 -29 0 -18 7 -20 58 -20 l57 0 -32 30 c-25
24 -41 30 -75 30 -34 -1 -39 -3 -25 -11z"></path>
      <path d="M4200 4754 c-10 -11 -13 -48 -11 -130 2 -109 2 -114 -18 -114 -14 0
-21 -6 -21 -20 0 -11 -4 -20 -10 -20 -5 0 -10 -4 -10 -10 0 -11 78 -14 104 -4
14 5 16 29 16 160 0 144 -1 154 -19 154 -10 0 -24 -7 -31 -16z"></path>
      <path d="M2297 4606 c-48 -45 -46 -111 6 -149 49 -37 127 -15 148 41 36 93
-82 175 -154 108z"></path>
      <path d="M2629 4601 c-38 -38 -39 -87 -4 -129 31 -38 65 -46 109 -28 72 30 82
131 17 169 -45 26 -88 22 -122 -12z"></path>
      <path d="M4237 4264 c-3 -3 7 -17 23 -30 28 -24 33 -24 167 -22 125 3 138 5
135 21 -2 9 2 17 8 17 6 0 8 5 5 10 -7 11 -327 14 -338 4z"></path>
      <path d="M4715 4260 c-16 -7 -17 -9 -3 -9 9 -1 20 4 23 9 7 11 7 11 -20 0z"></path>
      <path d="M2337 4233 c-4 -3 -7 -409 -7 -901 l0 -896 30 29 30 29 0 291 c0 270
-1 293 -18 308 -10 10 -22 14 -27 10 -4 -5 -5 -2 -1 5 6 11 12 10 27 -4 19
-17 19 -7 19 553 0 511 -2 571 -16 577 -20 8 -29 8 -37 -1z"></path>
      <path d="M1980 4167 c-38 -18 -63 -77 -50 -113 16 -42 39 -63 75 -70 59 -11
114 35 115 94 0 44 -14 68 -50 87 -35 18 -57 19 -90 2z"></path>
      <path d="M2984 4161 c-38 -23 -59 -76 -45 -113 12 -32 61 -68 93 -68 34 0 87
36 94 65 12 47 -4 94 -39 115 -40 25 -64 25 -103 1z"></path>
      <path d="M4055 4038 c-3 -7 -4 -301 -3 -653 l3 -640 430 0 430 0 3 644 c2 509
0 646 -10 653 -19 11 -378 10 -378 -2 0 -13 -64 -24 -95 -16 -14 4 -23 11 -20
15 3 6 -73 10 -175 11 -139 0 -181 -2 -185 -12z m805 -643 l0 -595 -375 0
-375 0 0 595 0 595 375 0 375 0 0 -595z"></path>
      <path d="M3007 3814 c-11 -11 -9 -694 3 -694 5 0 18 10 30 22 20 21 20 31 18
348 -3 319 -3 325 -23 328 -12 2 -24 0 -28 -4z"></path>
      <path d="M2706 2797 c-16 -12 -16 -14 3 -31 21 -19 21 -19 21 12 0 36 0 36
-24 19z"></path>
      <path d="M4324 2575 c-4 -9 -2 -21 4 -27 16 -16 47 -5 47 17 0 26 -42 34 -51
10z"></path>
      <path d="M4593 2574 c-4 -11 1 -22 12 -31 16 -11 21 -11 33 1 8 8 12 22 9 30
-8 21 -46 21 -54 0z"></path>
      <path d="M4802 1220 c0 -14 2 -19 5 -12 2 6 2 18 0 25 -3 6 -5 1 -5 -13z"></path>
      <path d="M4822 1215 c0 -16 2 -22 5 -12 2 9 2 23 0 30 -3 6 -5 -1 -5 -18z"></path>
      <path d="M610 551 c0 -6 9 -16 20 -24 11 -8 17 -17 13 -20 -3 -4 44 -7 105 -7
l112 0 0 -35 c0 -19 5 -35 11 -35 6 0 8 -7 5 -16 -3 -9 -2 -12 5 -9 5 4 7 15
4 25 -3 10 -1 21 5 25 5 3 10 1 10 -4 0 -6 4 -11 9 -11 5 0 3 17 -4 37 -9 25
-10 40 -3 44 6 4 5 9 -3 12 -9 3 -7 6 6 6 17 1 17 3 5 11 -20 13 -300 13 -300
1z"></path>
      <path d="M883 395 c-13 -12 -23 -29 -23 -38 0 -13 -15 -17 -87 -19 -86 -3 -88
-3 -88 -28 l0 -25 201 -3 c173 -2 203 0 208 13 14 37 -3 45 -90 45 l-84 0 0
40 c0 45 -5 47 -37 15z"></path>
      <path d="M4176 368 c-9 -12 -16 -28 -16 -34 0 -17 -34 -44 -56 -43 -18 0 -18
1 1 8 l20 8 -20 6 c-11 4 -7 5 10 3 28 -4 28 -3 10 10 -12 9 -44 14 -86 14
-60 0 -67 -2 -72 -22 -3 -12 -4 -25 -1 -30 8 -12 401 -10 409 2 3 6 3 19 0 30
-6 18 -15 20 -91 20 -55 0 -84 4 -84 11 0 8 -5 8 -15 -1 -20 -17 -19 -6 1 15
9 9 14 18 11 21 -3 3 -12 -5 -21 -18z m-186 -68 c0 -5 -2 -10 -4 -10 -3 0 -8
5 -11 10 -3 6 -1 10 4 10 6 0 11 -4 11 -10z"></path>
    </g>
  </symbol>
</svg>