<svg width="0" height="0" class="hidden">
  <symbol version="1.0" xmlns="http://www.w3.org/2000/svg" preserveAspectRatio="xMidYMid meet" viewBox="0 0 800.000000 800.000000" id="personel">
    <g transform="translate(0.000000,800.000000) scale(0.100000,-0.100000)" fill="grey" stroke="none">
      <path d="M3703 7317 c-47 -18 -122 -74 -134 -101 -9 -20 1 -97 55 -399 36
-206 66 -389 66 -407 0 -44 -55 -100 -99 -100 -40 0 -77 18 -96 46 -8 13 -41
174 -74 359 -33 186 -62 339 -65 342 -8 9 -131 -64 -214 -127 -322 -242 -530
-628 -558 -1035 l-7 -95 -47 0 c-31 0 -64 -9 -101 -27 -170 -87 -143 -330 42
-383 46 -14 3012 -14 3058 0 136 39 197 190 124 308 -35 59 -113 102 -183 102
l-47 0 -7 95 c-28 407 -236 793 -558 1035 -83 63 -206 136 -214 127 -3 -3 -32
-156 -65 -342 -33 -185 -66 -346 -74 -359 -19 -28 -56 -46 -96 -46 -41 0 -99
56 -99 97 0 15 30 200 67 411 l67 382 -21 28 c-26 35 -88 77 -134 91 -51 15
-544 13 -586 -2z"></path>
      <path d="M2530 4818 c0 -156 -4 -330 -10 -388 -60 -591 -242 -1025 -509 -1220
-33 -24 -59 -45 -57 -47 1 -2 26 1 55 7 70 13 458 70 474 70 6 -1 -22 -14 -63
-29 -487 -182 -888 -588 -1068 -1081 -118 -322 -144 -700 -66 -969 80 -274
270 -418 624 -472 117 -18 3975 -20 4135 -2 381 42 585 186 669 474 78 269 52
647 -66 969 -180 493 -581 899 -1068 1081 -41 15 -69 28 -63 29 16 0 404 -57
474 -70 29 -6 54 -9 55 -7 2 1 -26 24 -62 51 -210 155 -370 468 -454 883 -48
244 -61 393 -60 715 l0 288 -129 0 -128 0 -6 -127 c-22 -473 -213 -958 -495
-1254 -150 -159 -307 -259 -488 -311 -112 -32 -334 -33 -444 -1 -260 75 -487
256 -668 533 -176 269 -302 679 -319 1033 l-6 127 -129 0 -128 0 0 -282z m955
-1508 c175 -100 329 -142 515 -142 242 0 462 82 675 253 l83 66 -74 -153 -73
-154 37 25 c59 38 144 56 305 62 123 5 147 4 147 -8 0 -8 -16 -47 -35 -87 -79
-165 -287 -307 -564 -385 l-81 -22 -207 -337 c-115 -186 -210 -338 -213 -338
-3 0 -98 152 -213 338 l-207 337 -81 22 c-314 88 -547 267 -593 457 l-7 29
148 -6 c161 -6 246 -24 305 -62 l37 -25 -73 154 -74 153 83 -66 c45 -36 118
-86 160 -111z"></path>
    </g>
  </symbol>
</svg>