<svg width="0" height="0" class="hidden">
  <symbol version="1.0" xmlns="http://www.w3.org/2000/svg" preserveAspectRatio="xMidYMid meet" viewBox="0 0 463.000000 370.000000" id="price">
    <g transform="translate(0.000000,370.000000) scale(0.100000,-0.100000)" fill="#000000" stroke="none">
      <path d="M2150 3370 c-358 -44 -665 -193 -915 -444 -175 -176 -295 -367 -369
-586 -24 -73 -25 -75 -5 -78 23 -4 15 -22 -10 -22 -13 0 -21 -10 -25 -32 -26
-131 -37 -220 -37 -329 l-1 -127 -175 -63 c-95 -34 -176 -66 -179 -71 -4 -5
-8 -34 -10 -65 -2 -30 -6 -58 -9 -63 -5 -8 -55 -309 -55 -333 0 -16 354 -337
371 -337 18 0 262 90 276 102 7 6 13 7 13 2 0 -5 5 -1 11 9 7 12 17 16 32 12
21 -6 21 -5 4 8 -16 14 -15 15 12 19 25 4 28 2 20 -9 -8 -9 -8 -13 -1 -13 6 0
9 -7 6 -15 -5 -13 -2 -14 20 -5 22 8 26 7 26 -8 0 -10 -5 -23 -11 -29 -8 -8
-7 -13 1 -18 7 -4 17 -1 22 6 7 10 8 7 4 -10 -4 -20 8 -37 62 -94 37 -38 95
-91 129 -118 65 -52 93 -56 93 -13 0 26 -14 32 -24 12 -5 -10 -7 -10 -12 -1
-3 7 -12 9 -21 6 -11 -4 -14 -2 -9 5 4 7 16 12 27 12 13 0 -5 21 -62 70 -44
39 -85 70 -90 70 -5 0 -9 5 -9 11 0 6 -9 21 -19 33 -57 62 -81 91 -81 98 0 17
23 18 43 1 18 -15 19 -15 8 -1 -11 15 -9 19 23 35 20 9 36 20 36 24 0 4 7 10
16 13 10 4 13 2 8 -6 -8 -13 2 -10 86 20 278 102 277 102 295 82 44 -49 239
-166 305 -184 14 -4 -12 11 -57 33 -107 51 -252 151 -253 174 0 11 35 8 48 -5
9 -9 12 -7 12 10 0 15 6 22 18 22 12 0 23 -15 35 -48 10 -26 26 -53 37 -60 25
-15 25 -6 -1 62 -11 31 -18 60 -14 66 16 26 35 3 65 -80 28 -77 50 -110 73
-110 2 0 -13 48 -35 107 -31 83 -36 108 -26 114 26 17 25 20 93 -173 24 -67
47 -99 62 -84 3 3 -15 60 -40 128 -57 152 -57 152 -32 156 17 2 27 -17 74
-149 48 -134 70 -173 87 -157 3 3 -20 74 -51 159 -31 84 -53 159 -51 166 15
39 37 3 96 -163 56 -156 79 -199 96 -182 3 3 -25 88 -62 188 -52 145 -63 184
-52 191 26 17 17 35 137 -296 18 -49 35 -81 45 -83 9 -2 16 1 16 6 0 6 -31 95
-69 199 -38 103 -67 191 -64 196 2 4 12 7 21 7 13 0 34 -49 91 -205 59 -165
77 -205 92 -205 17 0 17 3 5 38 -8 20 -42 113 -76 206 -33 93 -59 175 -56 182
15 40 37 1 111 -206 60 -166 84 -220 95 -217 20 4 21 -2 -67 240 -63 172 -74
210 -62 218 8 5 17 9 20 9 3 0 36 -84 74 -187 92 -255 95 -263 111 -263 8 0
14 4 14 10 0 5 -36 108 -80 227 -75 206 -83 244 -48 231 7 -3 49 -105 93 -227
63 -173 84 -221 98 -221 9 0 17 1 17 3 0 1 -38 106 -84 232 -79 216 -83 231
-65 239 11 5 21 7 22 5 2 -2 39 -101 81 -220 88 -243 90 -249 106 -233 8 8
-11 72 -69 232 -45 121 -81 225 -81 230 0 9 30 26 35 20 2 -2 40 -105 85 -230
61 -168 86 -225 96 -221 8 3 14 8 14 12 0 4 -36 105 -80 225 -44 120 -77 223
-74 227 3 5 18 9 34 9 23 0 27 -3 23 -20 -9 -33 5 -70 27 -70 20 0 20 0 0 52
-15 40 -17 54 -7 60 19 12 29 9 34 -12 3 -11 9 -17 14 -15 4 3 7 -3 7 -12 -1
-10 28 -98 63 -196 48 -132 68 -177 79 -174 19 4 21 -1 -61 221 -38 104 -69
195 -69 202 0 20 29 25 39 6 5 -9 37 -96 71 -192 35 -96 67 -179 71 -184 6 -6
13 -6 19 0 13 13 -60 215 -74 207 -5 -4 -6 -1 -1 7 5 8 1 18 -10 27 -11 7 -14
13 -8 13 8 0 3 26 -12 71 -14 39 -22 75 -19 80 7 12 41 11 49 -1 11 -18 27
-11 20 9 -6 20 22 39 35 24 4 -4 22 -50 40 -100 18 -51 37 -93 42 -93 5 0 7
-4 3 -9 -8 -14 35 -122 46 -116 5 4 9 15 9 25 0 19 -67 207 -94 264 -16 32
-12 51 10 60 11 4 20 -6 30 -32 8 -20 19 -46 24 -57 8 -17 9 -16 4 6 -3 15 -1
30 5 34 8 4 8 12 0 26 -6 11 -8 27 -5 35 8 20 34 17 41 -5 3 -12 12 -18 20
-15 10 4 12 -3 10 -30 -3 -36 7 -52 24 -41 6 3 2 29 -10 62 -15 45 -16 58 -7
65 20 12 28 10 38 -14 6 -16 9 -18 9 -6 1 9 4 18 9 21 4 2 1 2 -5 1 -7 -2 -13
3 -13 11 0 10 11 13 40 12 29 -2 40 1 40 11 0 10 8 13 24 10 15 -3 27 0 30 7
2 7 21 18 40 25 20 6 36 15 36 19 0 3 11 8 24 9 40 3 190 61 203 78 6 8 14 11
17 6 7 -11 116 26 116 39 0 18 58 9 63 -8 2 -10 8 -27 13 -37 6 -15 4 -17 -7
-11 -11 6 -11 5 -2 -5 7 -8 8 -19 3 -29 -4 -9 -13 -65 -20 -124 -6 -60 -22
-151 -35 -203 -26 -102 -110 -320 -132 -342 -16 -17 -17 -23 -1 -20 10 3 13
-14 9 -53 0 -6 -7 -9 -13 -7 -23 8 -101 -69 -93 -92 4 -8 3 -11 -1 -7 -4 4
-21 -10 -37 -31 -70 -86 -241 -243 -327 -301 -163 -109 -347 -187 -540 -228
-66 -14 -130 -18 -285 -18 -173 0 -214 3 -305 23 -130 29 -269 80 -376 137
-45 24 -85 41 -88 38 -3 -4 -6 -2 -6 4 0 6 -18 22 -40 37 -37 25 -40 25 -40 7
0 -11 -4 -23 -10 -26 -18 -11 -10 -25 14 -25 14 0 26 -7 28 -18 6 -23 170
-110 176 -94 3 9 9 9 24 1 14 -8 17 -13 9 -18 -23 -15 193 -87 354 -118 122
-24 393 -23 525 1 203 37 428 130 605 249 122 83 314 275 393 395 34 52 60 98
57 103 -4 5 -2 9 3 9 13 0 53 76 45 84 -4 3 2 13 13 21 19 15 19 15 -1 27 -19
12 -19 12 5 18 18 4 30 20 47 63 36 90 73 242 86 355 10 88 9 105 -3 113 -11
8 -12 12 -2 16 15 6 17 123 2 123 -5 0 -10 12 -10 28 0 22 2 24 11 12 9 -12
10 -11 6 8 -3 12 0 22 5 22 6 0 4 8 -3 18 -13 15 -12 16 4 3 13 -10 16 -22 12
-40 -5 -21 -4 -23 9 -12 9 8 16 11 16 8 0 -3 14 -1 31 5 25 9 30 15 26 34 -5
28 5 31 27 9 15 -16 66 -12 66 5 0 4 6 7 13 6 21 -2 148 46 152 58 14 39 63
432 55 434 -6 2 -10 10 -10 18 0 9 4 13 9 10 5 -3 11 1 14 9 7 17 -40 58 -56
48 -6 -3 -7 -1 -3 5 6 10 -118 122 -135 122 -4 0 -11 -5 -15 -12 -5 -8 -2 -9
9 -5 11 4 20 -1 27 -14 8 -15 7 -21 -4 -25 -22 -8 -42 6 -25 17 11 7 10 9 -3
9 -21 0 -22 4 -8 30 8 15 3 24 -28 50 -20 17 -48 41 -62 53 -60 54 -45 55
-237 -14 l-176 -63 -31 40 c-66 84 -186 200 -284 273 -108 82 -316 196 -334
184 -8 -4 -5 -9 8 -14 10 -4 14 -8 7 -8 -20 -2 -43 11 -43 23 0 6 -9 17 -20
24 -12 7 -20 8 -20 2 0 -5 -4 -10 -10 -10 -5 0 -10 6 -10 14 0 15 -114 49
-240 72 -99 18 -326 25 -420 14z m400 -71 c97 -28 122 -30 136 -12 12 17 13
17 14 -4 0 -13 2 -23 4 -23 2 0 13 -3 23 -7 16 -6 16 -5 4 10 -9 12 -10 17 -2
17 6 0 14 -7 17 -15 4 -8 10 -12 15 -9 5 3 9 1 9 -5 0 -6 8 -8 18 -4 9 3 14 2
9 -2 -4 -5 28 -23 72 -41 210 -85 419 -236 563 -408 35 -42 46 -61 37 -67 -8
-5 -46 29 -112 97 -129 136 -241 219 -401 299 -71 36 -134 65 -140 65 -6 0 52
-31 129 -70 78 -39 178 -98 226 -134 96 -72 274 -255 262 -267 -4 -4 -106 -44
-227 -88 l-218 -80 -62 48 c-59 46 -132 95 -111 75 6 -6 43 -34 83 -64 39 -30
72 -58 72 -63 0 -5 -13 -7 -30 -5 -19 3 -30 0 -30 -8 0 -6 -7 -15 -16 -18 -11
-4 -19 4 -30 29 -7 19 -14 38 -14 43 0 4 -9 8 -20 8 -24 0 -24 2 -5 -43 17
-40 14 -63 -9 -63 -13 0 -25 24 -67 143 -7 20 -16 37 -19 37 -12 0 -2 -78 19
-134 16 -47 18 -61 9 -68 -22 -13 -30 -4 -56 67 -14 39 -29 72 -34 73 -4 2 -8
13 -9 25 -1 19 -2 18 -9 -5 -6 -21 -1 -47 20 -103 27 -73 28 -76 9 -86 -21
-11 -18 -16 -65 113 -13 36 -32 84 -41 105 -9 21 -18 44 -19 51 -5 29 -14 42
-28 42 -9 0 -13 -7 -11 -17 8 -40 69 -199 79 -205 6 -4 8 -8 4 -8 -4 0 0 -19
8 -42 16 -46 13 -68 -9 -68 -9 0 -26 31 -42 78 -16 42 -35 93 -44 112 -8 19
-14 38 -13 42 1 4 -5 5 -13 2 -20 -8 -20 -8 26 -134 33 -91 38 -114 28 -121
-22 -14 -27 -11 -40 26 -7 19 -17 35 -23 35 -5 0 -7 3 -3 6 3 3 -16 67 -43
142 -64 180 -60 172 -80 172 -15 0 -11 -17 31 -132 27 -72 54 -137 59 -143 5
-7 8 -14 5 -17 -2 -2 4 -27 15 -56 20 -51 20 -51 0 -62 -17 -9 -22 -7 -29 12
-5 13 -39 107 -76 211 -54 148 -72 187 -86 187 -16 0 -15 -10 17 -97 19 -54
40 -100 45 -101 5 -2 7 -7 4 -11 -2 -5 11 -52 31 -106 35 -99 37 -125 10 -125
-9 0 -23 25 -36 66 -12 36 -29 68 -37 71 -8 3 -10 8 -5 12 6 3 -8 55 -34 126
-59 161 -61 166 -78 159 -12 -4 -9 -20 16 -87 16 -45 34 -84 39 -85 5 -2 7 -8
3 -13 -3 -5 1 -12 9 -15 9 -3 12 -14 9 -30 -2 -14 0 -24 7 -24 7 0 10 -4 6 -9
-3 -5 9 -49 26 -96 26 -72 29 -89 18 -96 -8 -5 -17 -9 -20 -9 -4 0 -23 44 -42
98 -111 306 -130 352 -144 352 -20 0 -17 -10 72 -252 41 -111 72 -205 69 -210
-3 -4 -13 -8 -22 -8 -13 0 -36 53 -97 225 -64 181 -84 225 -98 225 -22 0 -28
23 72 -250 74 -201 77 -216 60 -224 -11 -5 -21 -7 -23 -5 -1 2 -40 105 -84
228 -45 123 -84 226 -87 229 -3 3 -10 1 -16 -5 -8 -8 13 -76 72 -238 68 -186
80 -228 68 -236 -8 -5 -17 -9 -20 -9 -3 0 -43 103 -89 229 -61 170 -86 228
-96 224 -8 -3 -14 -8 -14 -12 0 -4 36 -106 80 -226 76 -209 84 -246 48 -233
-7 3 -42 86 -77 184 -87 241 -93 255 -109 245 -10 -6 5 -58 67 -227 64 -177
76 -221 65 -227 -8 -4 -18 -6 -22 -3 -5 3 -41 96 -82 208 -40 112 -76 205 -78
208 -3 3 -7 -1 -9 -8 -3 -6 -9 -10 -14 -6 -5 3 -4 -7 2 -23 39 -101 139 -382
139 -391 0 -18 -29 -22 -39 -4 -5 9 -36 94 -70 187 -71 194 -76 204 -91 189
-7 -7 10 -66 60 -203 38 -106 67 -197 64 -203 -18 -29 -40 8 -99 170 -34 95
-66 176 -69 180 -4 3 -11 0 -16 -7 -8 -13 5 -55 94 -296 19 -52 22 -71 13 -77
-7 -4 -16 -6 -21 -5 -5 2 -36 75 -68 162 -32 87 -60 160 -63 163 -2 3 -8 -3
-11 -13 -7 -18 6 -62 67 -233 29 -80 32 -94 19 -102 -10 -7 -18 -5 -26 5 -6 8
-16 15 -23 15 -13 0 -15 17 -2 22 4 2 -11 55 -34 117 -37 100 -44 112 -53 95
-9 -17 -2 -44 34 -140 24 -65 42 -125 39 -131 -10 -27 -33 -11 -49 32 -10 25
-22 45 -27 45 -6 0 -8 4 -5 9 3 5 -2 32 -11 61 -15 46 -18 50 -29 35 -10 -14
-11 -23 -2 -39 7 -11 12 -25 13 -31 1 -28 39 -122 53 -133 15 -11 14 -13 -6
-19 -14 -3 -21 -11 -18 -19 3 -8 1 -14 -4 -14 -6 0 -10 5 -10 12 0 6 -8 20
-17 30 -9 10 -18 32 -19 48 -1 15 -8 39 -15 52 l-13 23 -6 -25 c-4 -15 2 -47
16 -82 21 -55 18 -78 -8 -62 -6 4 -8 3 -5 -4 9 -14 -3 -43 -14 -36 -5 3 -9 17
-10 32 0 24 -1 25 -8 7 -5 -11 -6 -26 -3 -34 3 -9 -1 -12 -14 -9 -10 2 -20 9
-20 16 -1 6 -2 18 -3 25 -1 6 -8 1 -15 -13 -8 -13 -22 -25 -33 -26 -51 -2 -55
-4 -49 -20 5 -12 2 -15 -10 -10 -12 4 -15 2 -10 -9 3 -8 -3 -19 -13 -25 -14
-7 -20 -6 -25 5 -3 9 0 15 9 15 8 0 15 5 15 11 0 5 -5 7 -10 4 -6 -4 -20 -8
-33 -10 -12 -3 -83 -27 -157 -54 l-135 -49 -6 76 -5 77 -2 -82 c-2 -70 -5 -83
-18 -83 -15 0 -16 14 -11 128 3 70 15 175 27 235 18 86 20 110 10 122 -10 12
-9 15 7 15 15 0 23 13 36 53 20 63 96 222 140 292 111 177 278 346 457 462 43
28 50 37 53 75 1 19 14 23 35 9 11 -7 11 -9 -2 -14 -9 -4 -16 -11 -16 -16 0
-5 49 13 110 40 118 53 239 90 365 114 83 15 425 18 475 4z m394 -94 c6 -17 4
-18 -18 -9 -20 8 -21 24 -2 24 8 0 16 -7 20 -15z m971 -355 c-3 -5 -10 -10
-16 -10 -5 0 -9 5 -9 10 0 6 7 10 16 10 8 0 12 -4 9 -10z m70 -150 c3 -5 1
-10 -4 -10 -6 0 -11 5 -11 10 0 6 2 10 4 10 3 0 8 -4 11 -10z m-116 -57 c12
-31 18 -59 14 -63 -7 -6 -29 -15 -95 -39 -25 -9 -26 -12 -16 -45 6 -20 15 -36
19 -36 5 0 31 9 59 20 28 11 53 20 55 20 6 0 33 -65 41 -96 5 -19 -1 -24 -48
-39 -29 -10 -56 -19 -60 -22 -7 -4 9 -62 21 -76 4 -4 35 3 70 14 35 12 66 18
71 13 4 -5 15 -32 23 -61 l15 -51 -73 -26 c-40 -14 -79 -26 -87 -26 -8 0 -18
-4 -23 -9 -10 -9 -75 -26 -75 -19 0 2 -11 32 -24 68 -122 331 -157 433 -151
438 6 6 219 88 236 91 3 1 16 -25 28 -56z m-365 -114 c38 -30 95 -149 71 -149
-2 0 -27 -9 -55 -20 l-51 -20 -9 28 c-28 76 -60 99 -60 42 0 -29 67 -225 96
-282 35 -67 60 -6 29 69 -8 19 -15 37 -15 38 0 2 27 12 60 23 l60 21 15 -52
c20 -67 19 -132 -2 -168 -23 -38 -87 -69 -145 -69 -83 0 -119 51 -194 272 -41
119 -44 183 -12 223 47 61 161 84 212 44z m726 -19 c0 -5 -4 -10 -10 -10 -5 0
-10 5 -10 10 0 6 5 10 10 10 6 0 10 -4 10 -10z m-984 -325 c50 -138 89 -253
85 -256 -9 -10 -110 -43 -114 -38 -5 6 -176 481 -179 498 -3 15 75 52 102 48
10 -1 46 -87 106 -252z m-318 141 c56 -29 104 -172 71 -212 -10 -13 -11 -18
-2 -21 37 -13 64 -50 94 -129 17 -46 39 -89 48 -94 18 -10 22 -7 -58 -35 -24
-8 -49 -15 -56 -15 -7 0 -29 41 -49 90 -33 78 -41 90 -62 90 -13 0 -24 -2 -24
-4 0 -2 16 -46 35 -97 19 -52 35 -97 35 -100 0 -7 -111 -51 -116 -46 -2 2 -38
98 -80 213 -42 115 -81 215 -86 222 -6 7 -12 28 -14 47 -3 32 -1 35 44 51 26
10 67 25 92 35 55 22 93 23 128 5z m-340 -172 c34 -39 62 -116 62 -168 0 -47
-35 -95 -84 -117 l-44 -19 34 -91 c19 -50 32 -95 29 -99 -9 -14 -106 -43 -114
-34 -9 11 -182 485 -181 499 0 6 39 25 88 42 116 43 164 40 210 -13z m1362
-94 c0 -5 -4 -10 -9 -10 -6 0 -13 5 -16 10 -3 6 1 10 9 10 9 0 16 -4 16 -10z
m38 -45 c-3 -3 -9 2 -12 12 -6 14 -5 15 5 6 7 -7 10 -15 7 -18z m-2408 -13 c0
-5 -7 -9 -15 -9 -8 0 -15 4 -15 9 0 4 7 8 15 8 8 0 15 -4 15 -8z m413 -49 c37
-36 66 -94 107 -213 38 -110 44 -192 18 -232 -12 -18 -44 -36 -100 -58 -138
-53 -118 -73 -224 215 -63 172 -88 252 -80 258 6 4 31 14 56 22 25 8 63 21 85
29 54 20 102 12 138 -21z m-397 -112 c40 -25 64 -64 108 -184 80 -213 81 -274
8 -322 -48 -31 -92 -42 -92 -24 -1 10 -5 8 -14 -4 -9 -11 -17 -14 -20 -8 -4 6
-13 8 -21 4 -46 -17 -101 73 -167 270 -30 91 -39 130 -35 160 13 94 151 158
233 108z m1844 15 c0 -3 -4 -8 -10 -11 -5 -3 -10 -1 -10 4 0 6 5 11 10 11 6 0
10 -2 10 -4z m-2130 -85 c0 -5 -7 -12 -16 -15 -14 -5 -15 -4 -4 9 14 17 20 19
20 6z m-250 -41 c0 -5 -4 -10 -10 -10 -5 0 -10 5 -10 10 0 6 5 10 10 10 6 0
10 -4 10 -10z m182 -37 c37 -35 56 -71 102 -198 45 -125 58 -191 41 -205 -7
-6 -11 -20 -8 -31 8 -28 -30 -65 -85 -83 -127 -44 -171 -4 -253 226 -63 175
-62 217 4 284 27 27 37 30 100 32 65 3 72 1 99 -25z m-597 -13 c3 -5 1 -10 -4
-10 -6 0 -11 5 -11 10 0 6 2 10 4 10 3 0 8 -4 11 -10z m2295 -50 c0 -5 -2 -10
-4 -10 -3 0 -8 5 -11 10 -3 6 -1 10 4 10 6 0 11 -4 11 -10z m-2386 -41 c-6
-11 -44 -12 -44 -1 0 4 11 8 25 8 14 1 22 -2 19 -7z m306 -25 c26 -22 70 -90
70 -108 0 -6 -49 -28 -88 -40 -18 -6 -24 -1 -36 29 -17 40 -49 46 -54 9 -3
-19 73 -240 100 -291 13 -26 43 -31 51 -9 10 25 -15 86 -35 86 -16 0 -48 55
-48 84 0 15 129 61 140 50 7 -8 100 -257 100 -268 0 -2 -14 -9 -31 -17 -28
-11 -33 -10 -44 5 -12 16 -15 15 -31 -13 -10 -17 -23 -30 -28 -28 -5 2 -18 -5
-29 -16 -49 -49 -144 17 -189 133 -12 32 -25 57 -28 55 -3 -2 -6 7 -7 18 0 12
-11 54 -22 92 -13 41 -21 89 -19 118 2 26 0 47 -5 47 -4 0 10 15 31 34 65 59
151 72 202 30z m-220 -26 c0 -4 -6 -8 -12 -8 -7 0 -14 12 -15 27 -1 26 0 27
13 8 8 -10 14 -22 14 -27z m-83 0 c-3 -8 -6 -5 -6 6 -1 11 2 17 5 13 3 -3 4
-12 1 -19z m2085 -20 c-7 -7 -12 -8 -12 -2 0 14 12 26 19 19 2 -3 -1 -11 -7
-17z m-2142 -162 c0 -5 -7 -3 -15 4 -13 10 -15 9 -15 -11 -1 -22 -1 -23 -12
-5 -9 15 -7 22 8 33 14 10 19 10 26 0 4 -6 8 -16 8 -21z m-56 -12 c3 -8 2 -12
-4 -9 -6 3 -10 10 -10 16 0 14 7 11 14 -7z m36 -68 c0 -3 -4 -8 -10 -11 -5 -3
-10 -1 -10 4 0 6 5 11 10 11 6 0 10 -2 10 -4z m3170 -156 c0 -5 -2 -10 -4 -10
-3 0 -8 5 -11 10 -3 6 -1 10 4 10 6 0 11 -4 11 -10z m-2626 -119 c3 -5 -1 -11
-9 -15 -15 -6 -29 7 -18 18 9 9 21 8 27 -3z m-111 -36 c-19 -25 -33 -32 -33
-15 0 6 5 10 11 10 5 0 7 5 3 12 -4 6 -3 8 4 4 6 -3 13 -2 17 4 3 5 8 10 11
10 3 0 -3 -11 -13 -25z m-178 -75 c3 -5 1 -10 -4 -10 -6 0 -11 5 -11 10 0 6 2
10 4 10 3 0 8 -4 11 -10z m60 -20 c3 -5 1 -10 -4 -10 -6 0 -11 5 -11 10 0 6 2
10 4 10 3 0 8 -4 11 -10z m-25 -4 c0 -8 -31 -36 -41 -36 -19 0 -8 29 14 33 12
2 23 5 25 6 1 0 2 -1 2 -3z m710 -251 c0 -8 -4 -15 -10 -15 -5 0 -7 7 -4 15 4
8 8 15 10 15 2 0 4 -7 4 -15z m107 -67 c-3 -8 -6 -5 -6 6 -1 11 2 17 5 13 3
-3 4 -12 1 -19z"></path>
      <path d="M2253 3273 c37 -2 96 -2 130 0 34 2 4 3 -68 3 -71 0 -99 -1 -62 -3z"></path>
      <path d="M2075 3259 c-20 -5 -9 -6 30 -2 33 3 62 7 64 9 8 7 -63 2 -94 -7z"></path>
      <path d="M2468 3263 c12 -2 30 -2 40 0 9 3 -1 5 -23 4 -22 0 -30 -2 -17 -4z"></path>
      <path d="M2548 3253 c7 -3 16 -2 19 1 4 3 -2 6 -13 5 -11 0 -14 -3 -6 -6z"></path>
      <path d="M2008 3243 c6 -2 18 -2 25 0 6 3 1 5 -13 5 -14 0 -19 -2 -12 -5z"></path>
      <path d="M2598 3243 c7 -3 16 -2 19 1 4 3 -2 6 -13 5 -11 0 -14 -3 -6 -6z"></path>
      <path d="M1968 3233 c7 -3 16 -2 19 1 4 3 -2 6 -13 5 -11 0 -14 -3 -6 -6z"></path>
      <path d="M1905 3220 c-13 -5 -14 -9 -5 -9 8 0 24 4 35 9 13 5 14 9 5 9 -8 0
-24 -4 -35 -9z"></path>
      <path d="M2688 3223 c7 -3 16 -2 19 1 4 3 -2 6 -13 5 -11 0 -14 -3 -6 -6z"></path>
      <path d="M1805 3185 c-25 -12 -26 -14 -5 -9 28 7 60 23 45 23 -5 0 -23 -6 -40
-14z"></path>
      <path d="M1730 3155 c-14 -8 -20 -14 -15 -14 6 0 21 6 35 14 14 8 21 14 15 14
-5 0 -21 -6 -35 -14z"></path>
      <path d="M1613 3096 c-157 -84 -330 -237 -448 -395 -61 -80 -165 -268 -179
-321 -4 -14 14 18 39 70 57 116 91 172 171 275 109 142 263 276 412 357 39 22
72 42 72 44 0 6 -1 6 -67 -30z"></path>
      <path d="M2410 3117 c0 -1 4 -17 9 -35 6 -20 6 -30 0 -27 -5 4 -9 12 -9 18 0
8 -19 12 -55 12 -30 0 -55 -3 -55 -7 0 -8 16 -12 39 -9 8 2 10 -2 5 -10 -4 -7
0 -17 10 -25 16 -11 16 -15 -3 -53 -12 -22 -21 -43 -21 -46 0 -3 18 6 41 20
l40 26 38 -31 39 -30 -11 43 c-5 23 -14 48 -20 55 -7 9 -6 11 6 6 25 -9 45 8
21 18 -16 7 -16 8 6 7 40 -2 50 0 50 11 0 6 -20 10 -44 10 -38 0 -45 3 -48 22
-2 11 -11 22 -20 24 -10 1 -18 1 -18 1z"></path>
      <path d="M1858 3045 c-3 -48 -4 -50 -46 -65 l-42 -16 55 -11 c31 -7 63 -9 73
-6 13 5 12 1 -5 -19 -15 -15 -23 -37 -23 -59 l1 -34 23 38 c31 50 27 49 80 33
51 -16 52 -15 3 41 -19 21 -19 22 7 59 27 40 27 56 1 34 -8 -7 -15 -21 -15
-32 0 -11 -5 -16 -11 -13 -6 4 -8 14 -5 22 5 11 2 13 -11 8 -13 -4 -27 4 -50
32 l-32 37 -3 -49z"></path>
      <path d="M2938 2959 l-38 -31 -34 21 c-18 12 -36 21 -39 21 -3 0 2 -19 13 -42
l19 -42 -37 -33 -37 -33 50 6 50 5 19 -43 18 -43 12 45 c11 44 13 45 54 48 23
2 42 6 42 10 0 4 -16 16 -35 26 -38 21 -39 23 -26 79 5 20 8 37 7 37 0 -1 -18
-14 -38 -31z"></path>
      <path d="M2283 2813 c20 -2 54 -2 75 0 20 2 3 4 -38 4 -41 0 -58 -2 -37 -4z"></path>
      <path d="M1494 2779 l-31 -31 -42 21 c-22 12 -41 19 -41 16 0 -3 9 -23 20 -44
10 -21 16 -41 13 -45 -4 -3 4 -6 16 -6 12 0 19 4 16 10 -8 13 -2 13 29 -2 20
-9 23 -14 15 -25 -15 -17 -33 -17 -26 1 4 10 0 12 -14 9 -10 -3 -19 -6 -19 -8
0 -1 13 -25 28 -53 29 -54 42 -58 42 -13 0 31 9 45 32 54 17 6 14 47 -4 47 -6
0 -7 19 -3 50 4 28 5 50 3 50 -2 0 -17 -14 -34 -31z"></path>
      <path d="M2173 2803 c9 -2 25 -2 35 0 9 3 1 5 -18 5 -19 0 -27 -2 -17 -5z"></path>
      <path d="M2423 2803 c9 -2 25 -2 35 0 9 3 1 5 -18 5 -19 0 -27 -2 -17 -5z"></path>
      <path d="M2118 2793 c6 -2 18 -2 25 0 6 3 1 5 -13 5 -14 0 -19 -2 -12 -5z"></path>
      <path d="M2488 2793 c6 -2 18 -2 25 0 6 3 1 5 -13 5 -14 0 -19 -2 -12 -5z"></path>
      <path d="M2078 2783 c7 -3 16 -2 19 1 4 3 -2 6 -13 5 -11 0 -14 -3 -6 -6z"></path>
      <path d="M2538 2783 c7 -3 16 -2 19 1 4 3 -2 6 -13 5 -11 0 -14 -3 -6 -6z"></path>
      <path d="M1955 2747 c-88 -35 -157 -73 -195 -107 -14 -12 -6 -9 20 8 64 41
123 71 210 103 41 15 68 28 60 28 -8 1 -51 -14 -95 -32z"></path>
      <path d="M2600 2765 c19 -7 42 -13 50 -13 8 0 -1 6 -20 13 -19 7 -42 13 -50
13 -8 0 1 -6 20 -13z"></path>
      <path d="M2420 2767 c0 -17 34 -97 42 -97 5 0 6 -6 2 -12 -5 -10 -4 -10 6 -1
23 21 -11 112 -42 113 -5 0 -8 -1 -8 -3z"></path>
      <path d="M2606 2707 c13 -42 21 -50 20 -18 0 17 -7 33 -14 36 -10 3 -11 -1 -6
-18z"></path>
      <path d="M1382 2668 c-19 -19 -14 -28 18 -28 34 0 39 14 12 29 -13 7 -23 6
-30 -1z"></path>
      <path d="M2800 2619 c0 -5 5 -7 10 -4 6 3 10 8 10 11 0 2 -4 4 -10 4 -5 0 -10
-5 -10 -11z"></path>
      <path d="M1685 2584 c-31 -27 -33 -31 -9 -15 28 18 62 51 53 51 -2 0 -22 -16
-44 -36z"></path>
      <path d="M1504 2380 c-46 -72 -98 -179 -91 -187 3 -2 12 15 21 39 17 40 78
148 112 196 9 12 14 22 10 22 -4 0 -27 -32 -52 -70z"></path>
      <path d="M1175 2339 c-12 -37 -20 -48 -28 -40 -6 6 -27 11 -46 11 l-36 -1 38
-32 38 -33 -16 -38 c-9 -21 -15 -40 -13 -42 2 -2 20 8 40 21 l36 24 37 -29
c21 -17 39 -30 40 -30 2 0 -3 21 -11 47 -8 25 -13 47 -12 48 2 1 21 14 43 28
l40 27 -51 0 -52 0 -11 45 c-6 25 -13 45 -15 45 -3 0 -12 -23 -21 -51z"></path>
      <path d="M960 2315 c-21 -56 -41 -136 -37 -148 3 -7 6 -5 6 5 1 10 12 51 25
93 22 71 27 104 6 50z"></path>
      <path d="M1396 2165 c-3 -9 -6 -22 -5 -28 0 -7 5 -1 10 12 5 13 8 26 5 28 -2
2 -6 -3 -10 -12z"></path>
      <path d="M912 2130 c0 -14 2 -19 5 -12 2 6 2 18 0 25 -3 6 -5 1 -5 -13z"></path>
      <path d="M1377 2101 c-4 -17 -3 -21 5 -13 5 5 8 16 6 23 -3 8 -7 3 -11 -10z"></path>
      <path d="M902 2075 c0 -16 2 -22 5 -12 2 9 2 23 0 30 -3 6 -5 -1 -5 -18z"></path>
      <path d="M893 2000 c0 -25 2 -35 4 -22 2 12 2 32 0 45 -2 12 -4 2 -4 -23z"></path>
      <path d="M1362 2020 c0 -14 2 -19 5 -12 2 6 2 18 0 25 -3 6 -5 1 -5 -13z"></path>
      <path d="M2825 2199 c-4 -6 1 -31 10 -55 22 -57 51 -58 49 -1 -2 53 -39 89
-59 56z"></path>
      <path d="M2450 2058 c0 -25 33 -99 43 -95 39 13 19 107 -22 107 -12 0 -21 -5
-21 -12z"></path>
      <path d="M1860 1858 c0 -2 24 -68 53 -148 53 -143 77 -178 92 -132 6 20 -33
145 -74 236 -16 37 -25 46 -45 46 -14 0 -26 -1 -26 -2z"></path>
      <path d="M1493 1733 c-7 -18 41 -168 84 -265 19 -42 31 -58 45 -58 18 0 19 4
13 38 -9 46 -82 249 -101 280 -17 26 -32 28 -41 5z"></path>
      <path d="M1124 1571 c9 -55 85 -257 107 -284 14 -18 20 -20 31 -9 10 10 6 33
-25 125 -49 144 -77 201 -101 206 -17 3 -18 -1 -12 -38z"></path>
      <path d="M790 1089 c0 -5 5 -7 10 -4 6 3 10 8 10 11 0 2 -4 4 -10 4 -5 0 -10
-5 -10 -11z"></path>
      <path d="M3999 2877 c7 -7 14 -8 21 -1 6 6 2 10 -12 11 -16 2 -18 -1 -9 -10z"></path>
      <path d="M4040 2856 c0 -8 37 -46 83 -86 45 -39 100 -87 121 -106 29 -26 41
-32 47 -22 5 7 3 18 -4 24 -112 98 -236 204 -241 204 -3 0 -6 -6 -6 -14z"></path>
      <path d="M4300 2632 c0 -4 6 -16 14 -27 12 -17 9 -53 -21 -259 -19 -131 -32
-241 -28 -244 16 -16 28 35 60 258 l35 245 -22 17 c-25 19 -38 23 -38 10z"></path>
      <path d="M3743 1835 c0 -38 2 -53 4 -32 2 20 2 52 0 70 -2 17 -4 1 -4 -38z"></path>
      <path d="M3262 1685 c0 -16 2 -22 5 -12 2 9 2 23 0 30 -3 6 -5 -1 -5 -18z"></path>
      <path d="M3732 1685 c0 -16 2 -22 5 -12 2 9 2 23 0 30 -3 6 -5 -1 -5 -18z"></path>
      <path d="M3176 1627 c2 -49 3 -57 13 -57 12 0 21 39 10 46 -5 3 -9 14 -9 25 0
10 -3 19 -7 19 -5 0 -8 -15 -7 -33z"></path>
      <path d="M3722 1625 c0 -16 2 -22 5 -12 2 9 2 23 0 30 -3 6 -5 -1 -5 -18z"></path>
      <path d="M3246 1615 c-9 -26 -7 -32 5 -12 6 10 9 21 6 23 -2 3 -7 -2 -11 -11z"></path>
      <path d="M3377 1596 c-4 -10 14 -19 61 -32 l67 -19 -75 -5 c-58 -4 -75 -9 -78
-21 -2 -13 19 -22 97 -44 56 -16 104 -26 107 -22 12 12 -7 24 -61 37 -31 7
-58 17 -61 22 -3 4 29 8 71 8 67 0 76 2 73 17 -2 12 -31 25 -98 45 -52 15 -96
28 -96 28 -1 0 -4 -6 -7 -14z"></path>
      <path d="M343 1588 c-12 -16 -34 -148 -27 -160 3 -5 1 -14 -4 -21 -5 -7 -12
-27 -14 -44 -3 -26 -1 -33 11 -33 13 0 20 25 35 123 10 67 21 128 23 135 3 6
1 12 -5 12 -5 0 -14 -6 -19 -12z"></path>
      <path d="M3712 1570 c0 -14 2 -19 5 -12 2 6 2 18 0 25 -3 6 -5 1 -5 -13z"></path>
      <path d="M3226 1545 c-9 -26 -7 -32 5 -12 6 10 9 21 6 23 -2 3 -7 -2 -11 -11z"></path>
      <path d="M2881 1537 c-9 -11 1 -48 46 -171 48 -130 59 -154 71 -143 11 11 3
39 -44 168 -31 85 -57 155 -59 157 -1 1 -7 -4 -14 -11z"></path>
      <path d="M3139 1539 c0 -2 -2 -13 -4 -24 -6 -28 5 -66 17 -59 10 6 5 70 -6 81
-3 4 -6 4 -7 2z"></path>
      <path d="M3701 1524 c0 -11 3 -14 6 -6 3 7 2 16 -1 19 -3 4 -6 -2 -5 -13z"></path>
      <path d="M3059 1523 c0 -5 -2 -16 -4 -26 -2 -11 6 -46 18 -79 18 -50 23 -57
33 -43 10 13 9 26 -3 61 -8 24 -21 44 -28 44 -8 0 -11 9 -7 25 2 14 2 25 -2
25 -3 0 -6 -3 -7 -7z"></path>
      <path d="M3691 1484 c0 -11 3 -14 6 -6 3 7 2 16 -1 19 -3 4 -6 -2 -5 -13z"></path>
      <path d="M3177 1425 c-9 -19 -15 -35 -12 -35 7 0 37 61 33 66 -3 2 -12 -12
-21 -31z"></path>
      <path d="M3666 1402 c-10 -31 -38 -99 -62 -151 -24 -52 -43 -96 -41 -98 2 -2
24 41 49 94 47 101 83 201 76 209 -3 2 -12 -22 -22 -54z"></path>
      <path d="M3317 1424 c-19 -19 1 -44 76 -96 56 -40 85 -54 92 -47 7 7 4 15 -8
24 -27 19 -17 49 17 55 56 10 36 26 -56 44 -51 10 -98 21 -104 23 -5 2 -13 0
-17 -3z m123 -53 c0 -3 -4 -12 -8 -18 -6 -9 -17 -6 -45 13 -20 13 -37 26 -37
28 0 2 20 -1 45 -7 25 -6 45 -13 45 -16z"></path>
      <path d="M2670 1396 c0 -7 111 -310 118 -323 4 -7 13 -9 20 -4 9 6 0 42 -39
152 -49 135 -71 179 -91 179 -4 0 -8 -2 -8 -4z"></path>
      <path d="M3110 1313 c-138 -210 -367 -358 -633 -409 -70 -14 -70 -14 -15 -9
139 12 342 103 469 209 80 67 171 170 207 235 35 61 22 50 -28 -26z"></path>
      <path d="M291 1294 c0 -11 3 -14 6 -6 3 7 2 16 -1 19 -3 4 -6 -2 -5 -13z"></path>
      <path d="M3252 1294 c-48 -33 -13 -89 86 -137 46 -23 63 -19 89 20 12 19 11
24 -11 49 -19 22 -27 26 -36 18 -9 -9 -7 -17 10 -34 16 -16 19 -25 11 -33 -12
-12 -71 12 -116 47 -34 27 -30 56 8 49 35 -7 44 15 12 27 -32 12 -26 13 -53
-6z"></path>
      <path d="M284 1256 c-8 -22 3 -33 18 -18 9 9 9 15 0 24 -9 9 -13 7 -18 -6z"></path>
      <path d="M290 1220 c-8 -5 -15 -15 -15 -22 0 -7 -4 -28 -9 -46 -9 -37 7 -67
32 -57 9 3 12 0 9 -9 -4 -9 8 -27 31 -46 20 -17 53 -46 72 -64 154 -144 221
-198 236 -192 13 5 14 9 4 22 -7 8 -19 13 -27 10 -7 -3 -13 1 -13 8 0 8 -72
78 -160 156 -160 143 -160 143 -154 179 3 20 8 44 11 54 5 20 4 20 -17 7z"></path>
      <path d="M3102 1097 c-32 -33 -32 -34 -13 -51 10 -9 25 -16 32 -14 8 2 13 -3
11 -10 -1 -7 5 -15 13 -18 8 -3 13 -9 10 -13 -2 -5 11 -23 30 -41 l33 -32 33
30 c23 21 30 35 25 48 -6 16 -10 14 -38 -14 l-32 -31 -17 37 c-17 36 -17 37 2
44 20 8 25 23 10 32 -4 3 -16 -3 -26 -14 -13 -15 -22 -17 -36 -9 -23 12 -24
27 -2 51 11 12 13 22 7 28 -7 7 -21 -2 -42 -23z"></path>
      <path d="M3490 1047 c-28 -41 -31 -47 -26 -47 7 0 49 61 44 65 -2 2 -10 -6
-18 -18z"></path>
      <path d="M3035 1028 c-4 -9 4 -33 18 -55 51 -81 50 -89 -5 -35 -83 81 -101 69
-43 -29 19 -32 31 -59 26 -59 -5 0 -29 23 -54 51 -28 31 -50 48 -57 44 -13 -8
126 -155 147 -155 23 0 21 16 -13 73 -19 32 -34 61 -34 65 0 3 24 -17 53 -46
41 -40 56 -49 65 -40 9 9 1 31 -35 97 -54 101 -60 110 -68 89z"></path>
      <path d="M3415 949 c-50 -68 -208 -213 -297 -272 -99 -66 -219 -128 -326 -167
-42 -16 -70 -29 -62 -29 8 -1 63 19 121 42 174 72 328 172 459 299 73 71 156
168 143 168 -4 0 -21 -19 -38 -41z"></path>
      <path d="M1611 886 c-45 -45 -71 -79 -66 -86 5 -8 12 -7 25 5 15 13 23 14 40
5 14 -8 19 -17 15 -28 -11 -29 -10 -37 4 -37 22 0 94 184 80 202 -6 7 -14 13
-18 13 -4 0 -40 -33 -80 -74z m53 -20 c-18 -37 -28 -44 -40 -25 -6 10 45 73
53 65 2 -2 -4 -20 -13 -40z"></path>
      <path d="M1235 910 c10 -11 20 -20 23 -20 3 0 -3 9 -13 20 -10 11 -20 20 -23
20 -3 0 3 -9 13 -20z"></path>
      <path d="M2070 915 c25 -9 70 -17 100 -20 53 -5 52 -4 -15 9 -38 8 -83 16
-100 20 -16 3 -10 -1 15 -9z"></path>
      <path d="M1775 865 c-31 -30 -32 -57 -3 -96 17 -23 20 -34 12 -47 -17 -26 -39
-20 -42 11 -4 32 -27 36 -35 6 -8 -29 0 -44 29 -58 34 -15 40 -14 64 11 24 26
26 66 5 94 -18 24 -19 60 -1 67 18 7 26 -1 26 -25 0 -10 7 -18 15 -18 23 0 18
47 -7 64 -30 21 -35 20 -63 -9z"></path>
      <path d="M2273 883 c26 -2 67 -2 90 0 23 2 2 3 -48 3 -49 0 -68 -1 -42 -3z"></path>
      <path d="M1270 872 c0 -28 317 -272 353 -272 6 0 -16 16 -49 36 -85 51 -159
108 -236 183 -38 35 -68 59 -68 53z"></path>
      <path d="M2740 852 c-44 -36 -2 -112 62 -112 34 0 55 -32 33 -50 -13 -10 -19
-10 -34 4 -21 19 -35 8 -25 -18 8 -22 38 -28 68 -15 31 14 40 38 27 72 -12 30
-25 39 -70 46 -40 7 -62 34 -43 53 9 9 15 9 24 0 14 -14 38 -16 38 -3 0 14
-29 41 -45 41 -7 0 -23 -8 -35 -18z"></path>
      <path d="M2007 803 c-3 -5 -17 -52 -30 -106 l-25 -97 39 -10 c39 -11 59 -7 59
10 0 5 -14 11 -30 15 -23 5 -29 11 -26 23 26 85 38 154 29 163 -6 6 -13 7 -16
2z"></path>
      <path d="M2604 795 c-4 -9 -3 -58 1 -110 5 -72 10 -95 21 -95 8 0 14 10 14 24
0 35 37 45 57 16 10 -14 19 -18 25 -12 7 7 -6 41 -38 101 -46 87 -68 108 -80
76z m50 -72 c13 -28 14 -38 5 -44 -20 -12 -27 -3 -31 41 -4 50 3 51 26 3z"></path>
      <path d="M2151 763 c-25 -21 -46 -118 -36 -164 7 -32 36 -49 68 -41 27 7 47
62 47 131 0 51 -3 62 -22 75 -28 20 -31 20 -57 -1z m43 -92 c0 -78 -13 -103
-39 -81 -13 11 -15 24 -9 69 14 116 49 125 48 12z"></path>
      <path d="M2347 764 c-4 -4 -7 -28 -8 -53 -1 -25 -4 -57 -8 -71 -6 -21 -9 -18
-15 25 -12 79 -17 95 -32 95 -10 0 -13 -8 -10 -22 9 -42 36 -180 36 -184 0 -2
9 -4 20 -4 18 0 20 7 20 58 0 86 15 95 28 16 12 -73 15 -79 35 -71 10 4 16 33
22 98 3 50 9 98 12 105 3 8 -1 14 -10 14 -17 0 -27 -41 -27 -108 0 -62 -11
-46 -24 35 -10 62 -23 83 -39 67z"></path>
      <path d="M1695 560 c33 -16 65 -29 70 -29 13 1 -107 57 -120 57 -5 0 17 -13
50 -28z"></path>
      <path d="M1826 505 c17 -7 44 -16 60 -20 25 -4 24 -3 -6 8 -19 8 -46 17 -60
20 -19 5 -17 3 6 -8z"></path>
      <path d="M1935 470 c11 -5 29 -8 40 -8 16 0 15 2 -5 8 -34 11 -60 11 -35 0z"></path>
      <path d="M2610 459 c-57 -14 -64 -17 -28 -13 47 5 147 32 118 32 -8 0 -49 -9
-90 -19z"></path>
      <path d="M2053 443 c9 -2 23 -2 30 0 6 3 -1 5 -18 5 -16 0 -22 -2 -12 -5z"></path>
      <path d="M2118 433 c12 -2 30 -2 40 0 9 3 -1 5 -23 4 -22 0 -30 -2 -17 -4z"></path>
      <path d="M2320 430 l-145 -6 135 -1 c74 -1 155 2 180 6 53 10 51 10 -170 1z"></path>
    </g>
  </symbol>
</svg>