<svg width="0" height="0" class="hidden">
  <symbol xmlns="http://www.w3.org/2000/svg" xmlns:xlink="http://www.w3.org/1999/xlink" version="1.1" viewBox="0 0 578 386" id="273921">
    <g id="surface1">
      <path d="M 504.746094 237.742188 L 467.984375 237.140625 L 513.183594 163.617188 L 546.933594 164.222656 L 565.011719 237.140625 L 537.289063 237.140625 L 533.070313 227.5 L 513.785156 227.5 L 514.390625 215.445313 L 528.25 215.445313 L 523.429688 185.914063 L 495.105469 224.484375 Z M 0.332031 254.015625 L 577.667969 254.015625 L 577.667969 270.890625 L 0.332031 270.890625 Z M 0.9375 136.5 L 577.667969 136.5 L 577.667969 153.371094 L 0.9375 153.371094 Z M 70.238281 237.140625 L 27.453125 237.140625 L 41.914063 179.285156 L 14.195313 179.285156 L 18.410156 163.617188 L 110.617188 163.617188 L 107 179.285156 L 73.855469 179.285156 L 64.816406 220.871094 Z M 130.503906 237.742188 L 93.742188 237.140625 L 138.941406 163.617188 L 172.6875 164.222656 L 190.769531 237.140625 L 163.046875 237.140625 L 158.828125 227.5 L 139.542969 227.5 L 140.144531 215.445313 L 154.007813 215.445313 L 149.1875 185.914063 L 120.863281 224.484375 Z M 200.410156 236.539063 L 204.628906 228.703125 C 224.71875 230.3125 233.554688 227.902344 231.144531 221.472656 L 246.816406 163.617188 L 278.152344 164.222656 C 274.234375 186.519531 268.8125 208.816406 260.074219 231.113281 C 258.667969 235.535156 255.652344 237.945313 251.03125 238.347656 C 234.160156 238.496094 217.285156 237.996094 200.410156 236.539063 Z M 311.898438 236.539063 L 279.960938 237.140625 L 298.039063 163.617188 L 325.160156 163.617188 Z M 353.785156 237.441406 L 326.664063 237.441406 L 367.644531 163.015625 L 391.75 163.316406 L 400.789063 192.242188 L 414.953125 163.316406 L 442.070313 163.617188 L 456.535156 237.441406 L 427.910156 237.441406 L 418.871094 199.476563 L 404.707031 227.800781 L 410.433594 237.441406 L 376.382813 237.441406 L 367.644531 198.871094 L 349.566406 227.800781 L 353.785156 237.441406 "></path>
      <path d="M 351.472656 270.890625 C 337.199219 313.566406 330.382813 349.972656 341.429688 367.914063 C 347.28125 376.292969 356.007813 382.257813 367.078125 385.8125 C 369.789063 386.316406 372.097656 385.613281 374.003906 383.707031 C 403.210938 344.289063 426.53125 317.960938 449.265625 303.027344 C 431.578125 308.109375 418.210938 307.542969 416.761719 291.378906 C 415.859375 282.929688 417.820313 276.242188 421.949219 270.890625 Z M 74.257813 270.890625 C 59.980469 313.566406 53.167969 349.972656 64.214844 367.914063 C 70.066406 376.292969 78.789063 382.257813 89.863281 385.8125 C 92.574219 386.316406 94.878906 385.613281 96.785156 383.707031 C 125.992188 344.289063 149.3125 317.960938 172.046875 303.027344 C 154.363281 308.109375 140.992188 307.542969 139.542969 291.378906 C 138.644531 282.929688 140.601563 276.242188 144.730469 270.890625 Z M 213.46875 270.890625 C 199.191406 313.566406 192.378906 349.972656 203.425781 367.914063 C 209.277344 376.292969 218.003906 382.257813 229.074219 385.8125 C 231.785156 386.316406 234.089844 385.613281 235.996094 383.707031 C 265.203125 344.289063 288.523438 317.960938 311.257813 303.027344 C 293.574219 308.109375 280.203125 307.542969 278.753906 291.378906 C 277.855469 282.929688 279.8125 276.242188 283.941406 270.890625 L 213.46875 270.890625 "></path>
      <path d="M 221.449219 136.5 C 223.984375 122.15625 232.75 111.972656 246.703125 105.246094 C 244.109375 82.355469 242.425781 59.695313 241.4375 37.210938 C 247.304688 29.503906 248.351563 22.902344 242.753906 25.691406 C 234.992188 31.375 232.851563 30.136719 235.414063 21.855469 C 239.894531 11.296875 240.621094 3.667969 235.867188 0.332031 C 231.914063 -0.609375 226.824219 0.570313 220.0625 4.847656 C 174.183594 39.128906 139.96875 81.386719 124.539063 136.5 Z M 499.570313 136.5 C 502.105469 122.15625 510.871094 111.972656 524.824219 105.246094 C 522.230469 82.355469 520.546875 59.695313 519.558594 37.210938 C 525.425781 29.503906 526.472656 22.902344 520.875 25.691406 C 513.113281 31.375 510.972656 30.136719 513.535156 21.855469 C 518.015625 11.296875 518.742188 3.667969 513.988281 0.332031 C 510.035156 -0.609375 504.945313 0.570313 498.183594 4.847656 C 452.304688 39.128906 418.089844 81.386719 402.660156 136.5 Z M 361.265625 136.5 C 363.796875 122.15625 372.5625 111.972656 386.519531 105.246094 C 383.921875 82.355469 382.242188 59.695313 381.25 37.210938 C 387.121094 29.503906 388.167969 22.902344 382.566406 25.691406 C 374.804688 31.375 372.664063 30.136719 375.230469 21.855469 C 379.707031 11.296875 380.433594 3.667969 375.679688 0.332031 C 371.730469 -0.609375 366.636719 0.570313 359.875 4.847656 C 313.996094 39.128906 279.78125 81.386719 264.355469 136.5 L 361.265625 136.5 "></path>
    </g>
  </symbol>
</svg>