<svg width="0" height="0" class="hidden">
  <symbol version="1.0" xmlns="http://www.w3.org/2000/svg" preserveAspectRatio="xMidYMid meet" viewBox="0 0 236.000000 282.000000" id="186bd6d190947231b6da296feda59bb4-veepro_embroidery_software">
    <g transform="translate(0.000000,282.000000) scale(0.100000,-0.100000)" fill="#000000" stroke="none">
      <path d="M1180 2452 c0 -365 0 -369 25 -453 14 -46 34 -132 45 -190 17 -95 25
-171 48 -439 l7 -85 79 125 c259 411 357 582 381 668 6 22 5 22 -76 22 l-81 0
6 33 c4 17 9 49 13 70 l6 37 239 0 240 0 -7 -32 c-22 -108 -22 -108 -69 -108
l-43 0 -229 -362 c-126 -200 -251 -399 -277 -443 -27 -44 -64 -102 -82 -130
-18 -27 -76 -118 -129 -202 l-96 -152 0 -176 0 -175 590 0 590 0 0 1180 0
1180 -590 0 -590 0 0 -368z"></path>
      <path d="M30 365 c-11 -13 -1 -40 60 -168 73 -154 105 -197 141 -197 44 0 62
25 141 186 86 177 89 194 26 194 -27 0 -32 -7 -77 -102 -26 -57 -53 -119 -61
-138 -7 -19 -16 -38 -20 -43 -3 -4 -33 52 -65 125 -32 73 -62 139 -68 146 -13
17 -62 15 -77 -3z"></path>
      <path d="M1330 374 c-35 -14 -40 -36 -40 -185 0 -129 2 -150 19 -170 16 -20
23 -22 47 -14 27 10 29 14 32 76 l3 66 87 5 c132 8 181 39 182 114 0 45 -24
78 -68 96 -30 11 -239 21 -262 12z m220 -74 c5 -8 10 -27 10 -41 0 -34 -34
-49 -110 -49 l-60 0 0 56 0 56 76 -4 c52 -2 78 -8 84 -18z"></path>
      <path d="M543 261 c-50 -23 -73 -62 -73 -124 0 -84 62 -130 175 -131 80 -1
148 26 153 61 5 31 -27 38 -61 13 -67 -50 -177 -31 -177 31 0 18 8 19 114 19
87 0 116 3 126 15 24 29 -18 96 -77 121 -46 20 -130 17 -180 -5z m157 -51 c40
-40 27 -50 -60 -50 -86 0 -94 6 -64 48 21 30 95 31 124 2z"></path>
      <path d="M963 268 c-17 -6 -44 -24 -60 -40 -24 -25 -28 -37 -28 -88 0 -93 51
-133 170 -134 83 -1 148 25 153 62 5 33 -35 33 -76 1 -37 -29 -106 -26 -137 6
-14 13 -25 31 -25 40 0 13 17 15 116 14 128 -2 139 3 129 55 -7 39 -22 56 -70
77 -44 20 -121 23 -172 7z m139 -55 c10 -9 18 -24 18 -35 0 -16 -9 -18 -80
-18 -87 0 -96 7 -58 47 26 28 92 32 120 6z"></path>
      <path d="M1752 268 c-8 -8 -12 -52 -12 -130 0 -115 1 -119 24 -129 17 -8 29
-8 45 0 18 10 21 21 21 84 0 40 6 83 13 97 11 22 19 25 70 26 66 0 90 15 65
40 -24 25 -93 30 -124 9 -25 -16 -28 -16 -36 -1 -11 19 -49 21 -66 4z"></path>
      <path d="M2087 266 c-46 -17 -64 -32 -83 -67 -39 -77 11 -166 107 -189 124
-30 239 36 239 137 0 39 -33 89 -72 109 -43 23 -143 28 -191 10z m132 -51 c65
-33 53 -135 -19 -156 -73 -22 -133 34 -115 107 15 59 74 81 134 49z"></path>
    </g>
  </symbol>
</svg>