<svg width="100px" height="100px" class="hidden">
  <symbol version="1.0" xmlns="http://www.w3.org/2000/svg" preserveAspectRatio="xMidYMid meet" viewBox="0 0 600.000000 600.000000" id="wilcom">
    <g transform="translate(0.000000,600.000000) scale(0.100000,-0.100000)" fill="greyd" stroke="none">
      <path d="M2935 4513 c-11 -2 -56 -11 -100 -19 -476 -92 -863 -477 -970 -964
-25 -116 -30 -315 -11 -441 75 -501 439 -902 934 -1028 485 -124 1005 64 1308
474 159 216 237 453 237 730 1 165 -9 230 -54 380 -136 444 -528 785 -989 860
-86 13 -305 19 -355 8z m-395 -740 c0 -13 140 -666 143 -669 2 -2 50 149 108
336 l104 340 209 -2 209 -3 94 -300 c51 -165 98 -317 104 -339 6 -21 12 -36
14 -35 2 2 30 132 64 289 33 157 65 309 71 338 l12 52 204 0 205 0 -6 -32 c-4
-18 -73 -298 -153 -623 l-147 -590 -214 0 -213 0 -121 387 c-67 213 -122 386
-123 385 -2 -1 -37 -113 -79 -247 -42 -135 -96 -309 -121 -387 l-45 -143 -212
0 -212 0 -156 625 -156 625 208 0 c115 0 209 -3 209 -7z"></path>
      <path d="M1701 1543 c38 -136 74 -267 80 -291 11 -42 12 -43 52 -40 l40 3 68
235 c38 129 69 241 69 249 0 39 21 -21 85 -242 l70 -242 37 -3 c37 -3 37 -3
52 50 9 29 47 160 85 291 l69 238 -41 -3 -40 -3 -61 -237 c-33 -131 -63 -232
-67 -225 -4 7 -10 30 -13 52 -4 22 -27 110 -52 195 -71 246 -58 220 -113 220
l-48 0 -67 -227 c-36 -126 -66 -234 -66 -242 0 -43 -20 24 -70 232 l-55 232
-41 3 -42 3 69 -248z"></path>
      <path d="M2520 1750 c0 -39 1 -40 35 -40 34 0 35 1 35 40 0 39 -1 40 -35 40
-34 0 -35 -1 -35 -40z"></path>
      <path d="M2742 1503 l3 -288 35 0 35 0 3 288 2 287 -40 0 -40 0 2 -287z"></path>
      <path d="M3065 1621 c-55 -24 -90 -69 -105 -132 -25 -105 11 -214 85 -256 47
-27 137 -31 189 -9 37 16 81 67 91 108 6 24 4 27 -27 30 -30 3 -35 -1 -50 -34
-33 -74 -126 -88 -183 -28 -25 27 -30 40 -33 99 -7 123 31 181 121 181 38 0
49 -5 70 -30 14 -16 27 -34 29 -41 5 -15 68 -2 68 14 0 7 -9 27 -20 45 -40 65
-153 91 -235 53z"></path>
      <path d="M3525 1621 c-82 -37 -122 -117 -112 -223 11 -121 82 -188 200 -188
121 0 193 67 204 187 13 144 -69 243 -202 243 -27 0 -68 -9 -90 -19z m173 -75
l37 -34 0 -85 c0 -101 -17 -133 -82 -156 -35 -13 -46 -13 -79 0 -58 22 -84 67
-84 146 0 111 40 162 128 163 35 0 49 -6 80 -34z"></path>
      <path d="M4075 1623 c-16 -8 -38 -22 -47 -31 -17 -14 -18 -13 -18 11 0 23 -4
27 -30 27 l-30 0 0 -210 0 -210 34 0 34 0 4 149 c3 133 5 153 24 178 41 56
133 54 154 -3 6 -14 10 -93 10 -175 l0 -149 34 0 34 0 4 156 3 156 33 29 c38
35 88 39 123 10 23 -19 24 -25 27 -185 l3 -166 35 0 34 0 0 166 c0 134 -3 173
-17 201 -30 65 -123 82 -200 38 -23 -14 -43 -31 -43 -38 0 -7 -10 0 -23 15
-39 48 -123 63 -182 31z"></path>
      <path d="M2520 1419 l0 -210 33 3 32 3 3 208 2 207 -35 0 -35 0 0 -211z"></path>
    </g>
  </symbol>
</svg>